<svg width="100" height="20" viewBox="0 0 100 20" fill="none" xmlns="http://www.w3.org/2000/svg">
<g clip-path="url(#clip0_5519_14437)">
<path d="M7.90687 16.9302C12.2737 16.9302 15.8137 13.3902 15.8137 9.02333C15.8137 4.65648 12.2737 1.11646 7.90687 1.11646C3.54003 1.11646 0 4.65648 0 9.02333C0 13.3902 3.54003 16.9302 7.90687 16.9302Z" fill="#6BD9A1"/>
<path d="M3.79531 9.97209C4.49401 9.97209 5.06041 9.40569 5.06041 8.70699C5.06041 8.0083 4.49401 7.44189 3.79531 7.44189C3.09662 7.44189 2.53021 8.0083 2.53021 8.70699C2.53021 9.40569 3.09662 9.97209 3.79531 9.97209Z" fill="#19191B"/>
<path d="M12.0185 9.97209C12.7172 9.97209 13.2836 9.40569 13.2836 8.70699C13.2836 8.0083 12.7172 7.44189 12.0185 7.44189C11.3198 7.44189 10.7534 8.0083 10.7534 8.70699C10.7534 9.40569 11.3198 9.97209 12.0185 9.97209Z" fill="#19191B"/>
</g>
<path fill-rule="evenodd" clip-rule="evenodd" d="M30.7743 5.89221L32.0145 4.6773L31.8392 4.50201C30.7592 3.42197 29.3173 2.79607 27.7077 2.79607C24.454 2.79607 21.7975 5.38871 21.7975 8.59726C21.7975 11.8235 24.4534 14.4166 27.7077 14.4166C29.3191 14.4166 30.7597 13.7713 31.8377 12.7122L32.0179 12.5352L30.7544 11.3222L30.5844 11.4922C29.8469 12.2297 28.837 12.6913 27.7077 12.6913C25.4681 12.6913 23.6681 10.8618 23.6681 8.59726C23.6681 6.35159 25.4674 4.52142 27.7077 4.52142C28.8381 4.52142 29.8659 4.98377 30.6026 5.72049L30.7743 5.89221ZM31.4885 4.50563C31.5487 4.56086 31.6077 4.61749 31.6657 4.67549L30.7761 5.547L30.7752 5.54613L31.6639 4.67559C30.629 3.64068 29.2491 3.04152 27.7058 3.04152C27.6131 3.04152 27.5209 3.04371 27.4293 3.04804C27.5215 3.04365 27.6143 3.04143 27.7077 3.04143C29.1645 3.04143 30.4757 3.57531 31.4885 4.50563ZM27.9772 14.1649C29.3253 14.1016 30.5372 13.5649 31.487 12.7057C31.5477 12.6508 31.6073 12.5947 31.6658 12.5372L30.7579 11.6657L30.757 11.6666L31.6639 12.5373C30.69 13.4941 29.4107 14.0971 27.9772 14.1649ZM27.9091 12.932C27.8424 12.9351 27.7752 12.9366 27.7077 12.9366C25.3292 12.9366 23.4228 10.9939 23.4228 8.59726C23.4228 6.28887 25.2185 4.39093 27.4987 4.28108C25.2176 4.39 23.4209 6.28834 23.4209 8.59735C23.4209 10.994 25.3273 12.9367 27.7058 12.9367C27.774 12.9367 27.8418 12.9351 27.9091 12.932ZM42.617 12.4264V14.108H44.4513V3.10473H42.617V4.78052C41.7115 3.69249 40.3213 2.79607 38.4141 2.79607C35.1718 2.79607 32.6311 5.39544 32.6311 8.59726C32.6311 11.8167 35.1712 14.4166 38.4141 14.4166C40.3226 14.4166 41.7125 13.5057 42.617 12.4264ZM42.8605 5.47438H42.8261C42.7602 5.37419 42.6906 5.27468 42.617 5.17637C41.7577 4.02746 40.3709 3.04143 38.4141 3.04143C38.3368 3.04143 38.2599 3.04297 38.1835 3.04602C38.2593 3.04302 38.3356 3.04152 38.4122 3.04152C40.5365 3.04152 41.989 4.20352 42.8242 5.47446H42.8605V5.47438ZM38.6784 14.1651C40.4964 14.0796 41.7969 13.1179 42.617 12.0327C42.6905 11.9354 42.7602 11.8371 42.826 11.7384H42.8242C42.0244 12.9382 40.6584 14.0713 38.6784 14.1651ZM44.2041 13.8626H44.206V3.35009H42.8624V3.35017H44.2041V13.8626ZM38.5412 4.52142C40.7848 4.52142 42.617 6.33681 42.617 8.59726C42.617 10.8765 40.7842 12.6913 38.5412 12.6913C36.2834 12.6913 34.5016 10.8799 34.5016 8.59726C34.5016 6.33342 36.2828 4.52142 38.5412 4.52142ZM50.0511 5.74296L50.0456 5.71041L52.9869 4.13066L52.3878 3.04143L52.3863 3.04221L52.9851 4.1309L50.0438 5.7105L50.0493 5.74305C50.0654 5.83834 50.0801 5.9249 50.0801 6.05547V13.8626H50.0819V6.05538C50.0819 5.92481 50.0673 5.83825 50.0511 5.74296ZM48.7365 6.4193V6.41859L48.6094 6.47306C48.3456 6.60498 48.0518 6.69197 47.7416 6.70683C48.0069 6.69437 48.2602 6.62915 48.493 6.52816C48.5331 6.51079 48.5725 6.49237 48.6113 6.47298L48.7365 6.4193ZM49.7366 4.43876C49.7032 4.3689 49.6673 4.30094 49.6292 4.23506C49.2111 3.51375 48.5139 3.04143 47.649 3.04143C47.6162 3.04143 47.5836 3.04221 47.5512 3.04375C47.583 3.04227 47.615 3.04152 47.6471 3.04152C48.5913 3.04152 49.3357 3.60436 49.7351 4.43955L49.7366 4.43876ZM47.649 2.79607C48.6138 2.79607 49.3836 3.32541 49.8392 4.10819L52.4866 2.71194L53.3214 4.22971L50.3147 5.84439C50.3221 5.90504 50.3273 5.97338 50.3273 6.05538V14.108H48.493V6.79324C48.2322 6.89387 47.9478 6.95436 47.649 6.95436C46.4637 6.95436 45.4064 6.02985 45.4064 4.87522C45.4064 3.72058 46.4637 2.79607 47.649 2.79607ZM48.2823 4.94341L47.819 5.1879L47.8133 5.19136C47.7705 5.217 47.7267 5.22902 47.649 5.22902C47.4481 5.22902 47.277 5.05718 47.277 4.87522C47.277 4.69325 47.4481 4.52142 47.649 4.52142C47.8305 4.52142 47.9681 4.57567 48.0774 4.66907C48.1537 4.73438 48.2231 4.82484 48.2823 4.94341ZM47.6905 5.47342C47.677 5.47407 47.6631 5.47438 47.649 5.47438C47.3222 5.47438 47.0317 5.20203 47.0317 4.87522C47.0317 4.55829 47.3049 4.29258 47.6194 4.2768C47.3041 4.29163 47.0298 4.55776 47.0298 4.87531C47.0298 5.20212 47.3203 5.47446 47.6471 5.47446C47.6619 5.47446 47.6764 5.47413 47.6905 5.47342ZM54.1647 14.108H55.999V12.4264C56.9036 13.5057 58.2935 14.4166 60.202 14.4166C63.4448 14.4166 65.985 11.8167 65.985 8.59726C65.985 5.39544 63.4443 2.79607 60.202 2.79607C58.2948 2.79607 56.9045 3.69249 55.999 4.78052V0H54.1647V14.108ZM38.324 4.28136C36.0306 4.3926 34.2544 6.27296 34.2544 8.59735C34.2544 11.0121 36.1427 12.9367 38.5393 12.9367C38.607 12.9367 38.6743 12.9352 38.7413 12.9321C38.6749 12.9351 38.6082 12.9366 38.5412 12.9366C36.1446 12.9366 34.2563 11.0121 34.2563 8.59726C34.2563 6.2735 36.0315 4.39352 38.324 4.28136ZM55.7537 8.59726C55.7537 11.0121 57.6964 12.9366 60.0749 12.9366C60.1424 12.9366 60.2096 12.9351 60.2763 12.9321C62.5756 12.8268 64.3579 10.9434 64.3579 8.59735C64.3579 6.20072 62.4696 4.27615 60.073 4.27615C60.0013 4.27615 59.93 4.2779 59.8592 4.28136C57.58 4.39353 55.7537 6.2735 55.7537 8.59726ZM70.8498 11.5477C70.7861 11.5618 70.7313 11.5398 70.6846 11.4982L67.0465 2.80711L67.0486 2.80623L70.6869 11.4978C70.733 11.5388 70.7871 11.5608 70.8498 11.5477ZM74.6363 2.80744L74.6368 2.80623L75.8816 3.3273L71.9558 12.7057C71.6138 13.5227 71.1989 14.3073 70.7162 15.05C70.1778 15.8783 69.3397 16.4492 68.3956 16.6577C69.3388 16.4488 70.1759 15.8781 70.7139 15.0505C71.1966 14.3078 71.6115 13.5232 71.9535 12.7062L75.8793 3.32778L74.6363 2.80744ZM66.6718 15.3964H67.5898C67.7646 15.3964 67.9368 15.3772 68.1038 15.3402C67.9375 15.3768 67.7661 15.3959 67.5921 15.3959H66.6718V15.3964ZM65.4828 3.19572L69.7947 13.4966C69.6632 13.7287 69.5246 13.9569 69.379 14.1808C68.9859 14.7856 68.3135 15.1505 67.5921 15.1505H66.4264V16.9907H67.5921C68.9363 16.9907 70.1893 16.3107 70.9219 15.1837C71.4126 14.4287 71.8344 13.6311 72.1821 12.8004L76.2027 3.19572L74.5052 2.48516L70.8427 11.2345L67.1802 2.48516L65.4828 3.19572Z" fill="#F1F1F1"/>
<path opacity="0.6" d="M81.6464 2.696C83.9984 2.696 85.8944 4.568 85.8944 6.92C85.8944 9.272 83.9984 11.144 81.6464 11.144C79.2944 11.144 77.3984 9.272 77.3984 6.92C77.3984 4.568 79.2944 2.696 81.6464 2.696ZM81.6464 9.62C83.1344 9.62 84.2384 8.408 84.2384 6.92C84.2384 5.432 83.1344 4.22 81.6464 4.22C80.1584 4.22 79.0544 5.432 79.0544 6.92C79.0544 8.408 80.1584 9.62 81.6464 9.62ZM89.8415 2.696C91.2215 2.696 93.0095 3.236 93.2015 5.324H91.5815C91.4735 4.568 90.9935 4.1 89.9615 4.1C89.0615 4.1 88.4735 4.448 88.4735 5.12C88.4735 5.708 88.9055 5.96 89.6855 6.116L90.6455 6.308C92.2415 6.632 93.1535 7.244 93.1535 8.588C93.1535 10.136 91.8815 11.144 89.9615 11.144C87.9455 11.144 86.5415 10.064 86.4215 8.312H88.0415C88.1735 9.164 88.9295 9.692 90.0575 9.692C90.9575 9.692 91.4735 9.368 91.4735 8.792C91.4735 8.432 91.2695 8.06 90.3935 7.904L89.0735 7.652C87.4535 7.34 86.7455 6.524 86.7455 5.264C86.7455 3.704 87.9815 2.696 89.8415 2.696Z" fill="white"/>
<defs>
<clipPath id="clip0_5519_14437">
<rect width="15.8137" height="15.8137" fill="white" transform="translate(0 1.11646)"/>
</clipPath>
</defs>
</svg>
