<svg width="96" height="23" viewBox="0 0 96 23" fill="none" xmlns="http://www.w3.org/2000/svg">
<path fill-rule="evenodd" clip-rule="evenodd" d="M9.14135 0.019043C11.5801 0.019043 13.7831 1.01857 15.3548 2.62631L13.365 4.59577C12.303 3.49249 10.8042 2.80493 9.14306 2.80493C5.923 2.80493 3.31262 5.38862 3.31262 8.57577C3.31262 11.7629 5.923 14.3466 9.14306 14.3466C10.8042 14.3466 12.303 13.6591 13.365 12.5558L15.3548 14.5253C13.7831 16.133 11.5801 17.1326 9.14135 17.1326C4.36677 17.1326 0.496216 13.3016 0.496216 8.5758C0.496216 3.85004 4.36677 0.019043 9.14135 0.019043ZM33.9209 10.1196C33.9209 8.90865 36.206 7.69966 38.099 8.07988L38.2928 5.61863C36.0126 5.42699 34.4988 6.26211 33.9209 7.00818L33.6211 5.81714H31.4572V16.9335H33.9209V10.1196ZM28.6415 5.67704H26.2003V6.55641C25.2522 5.81964 24.0435 5.39185 22.6214 5.39185C19.4929 5.39185 16.9806 8.00617 16.9806 11.2622C16.9806 14.5182 19.4929 17.1325 22.6214 17.1325C24.0435 17.1325 25.2522 16.7047 26.2003 15.968V16.8473H28.6415V5.67704ZM26.2375 11.2622C26.2375 13.2311 24.8468 14.8272 22.8834 14.8272C20.9199 14.8272 19.3282 13.2311 19.3282 11.2622C19.3282 9.29336 20.9199 7.69727 22.8834 7.69727C24.8468 7.69727 26.2375 9.29336 26.2375 11.2622ZM44.0998 5.39209C47.8429 5.39209 50.1704 8.22031 49.6905 11.9992H40.8847C41.0401 13.7262 42.0113 14.97 44.2437 14.97C45.5803 14.97 46.491 14.7227 47.4209 13.6575L49.0427 14.9266C48.2012 16.2176 46.41 17.1328 44.2437 17.1328C40.6925 17.1328 38.2931 14.5897 38.2931 11.2624C38.2931 7.95888 40.6685 5.39209 44.0998 5.39209ZM44.1223 7.49585C42.2508 7.49585 41.1247 8.77504 40.9454 10.288H47.2176C47.0737 8.45802 45.8739 7.49585 44.1223 7.49585Z" fill="white"/>
<path d="M92.3003 5.65173H95.0111L87.3718 22.7874H84.6857L87.1253 17.303L81.2111 5.65173H83.9464L88.3082 14.6217L92.3003 5.65173Z" fill="white"/>
<path d="M76.9898 8.55237C79.2816 8.99112 80.3659 10.6242 80.3659 12.5986C80.3659 15.3042 78.0002 17.1324 74.2791 17.1324H66.7384V0.557373H74.008C77.4827 0.557373 79.5527 2.1905 79.5527 4.823C79.5527 6.55362 78.5916 8.01612 76.9898 8.55237ZM73.7123 2.873H69.3998V7.748H73.5891C75.8316 7.748 77.0638 6.69987 77.0638 5.16425C77.0638 3.72612 75.8563 2.873 73.7123 2.873ZM74.1805 14.8167C76.497 14.8167 77.7538 13.6955 77.7538 12.2817C77.7538 10.7949 76.423 9.91737 74.2791 9.91737H69.3998V14.8167H74.1805Z" fill="white"/>
<path d="M52.9862 5.38113C53.3989 4.97289 54.0681 4.97289 54.4808 5.38113L56.4372 7.31623C57.2164 8.08701 58.4709 8.08701 59.2501 7.31623L61.2065 5.38113C61.6192 4.97289 62.2884 4.97289 62.7011 5.38113L63.4484 6.12031C63.8611 6.52854 63.8611 7.19042 63.4484 7.59866L61.5231 9.50302C60.7317 10.2858 60.7317 11.5641 61.5231 12.3469L63.4484 14.2512C63.8611 14.6595 63.8611 15.3214 63.4484 15.7296L62.7011 16.4688C62.2884 16.877 61.6192 16.877 61.2065 16.4688L59.2501 14.5337C58.4709 13.7629 57.2164 13.7629 56.4372 14.5337L54.4808 16.4688C54.0681 16.877 53.3989 16.877 52.9862 16.4688L52.2389 15.7296C51.8262 15.3214 51.8262 14.6595 52.2389 14.2512L54.1642 12.3469C54.9556 11.5641 54.9556 10.2858 54.1642 9.50302L52.2389 7.59866C51.8262 7.19042 51.8262 6.52854 52.2389 6.1203L52.9862 5.38113Z" fill="#6BD9A1"/>
</svg>
