<svg width="14" height="14" viewBox="0 0 14 14" fill="none" xmlns="http://www.w3.org/2000/svg">
<g clip-path="url(#clip0_5519_14352)">
<path d="M12.4322 3.50568L9.35832 0.431816C9.19794 0.27298 8.98176 0.183243 8.75604 0.181816L2.17082 0.181816C1.94478 0.181816 1.728 0.271609 1.56817 0.431441C1.40834 0.591273 1.31854 0.808052 1.31854 1.03409V12.9659C1.31854 13.1919 1.40834 13.4087 1.56817 13.5686C1.728 13.7284 1.94478 13.8182 2.17082 13.8182H12.3981C12.4354 13.8182 12.4723 13.8108 12.5068 13.7966C12.5413 13.7823 12.5726 13.7614 12.599 13.735C12.6254 13.7086 12.6463 13.6773 12.6606 13.6428C12.6748 13.6083 12.6822 13.5714 12.6822 13.5341V4.10795C12.6808 3.88224 12.591 3.66605 12.4322 3.50568ZM5.76172 6.53409L3.84695 5.81818C3.5844 5.69427 3.36532 5.49404 3.21834 5.24367C3.07137 4.9933 3.00332 4.70442 3.02309 4.41477C3.02147 4.05601 3.15406 3.70962 3.39482 3.44363C3.63557 3.17765 3.96708 3.0113 4.32422 2.97727C4.35784 2.97183 4.38837 2.95449 4.41027 2.92842C4.43217 2.90234 4.44398 2.86927 4.44354 2.83523V2.45454C4.44354 2.30385 4.5034 2.15933 4.60996 2.05278C4.71651 1.94622 4.86103 1.88636 5.01172 1.88636C5.16242 1.88636 5.30694 1.94622 5.41349 2.05278C5.52004 2.15933 5.57991 2.30385 5.57991 2.45454V2.8125C5.57991 2.85017 5.59487 2.8863 5.62151 2.91294C5.64815 2.93958 5.68428 2.95454 5.72195 2.95454H6.43218C6.58287 2.95454 6.72739 3.01441 6.83394 3.12096C6.9405 3.22751 7.00036 3.37203 7.00036 3.52273C7.00036 3.67342 6.9405 3.81794 6.83394 3.92449C6.72739 4.03105 6.58287 4.09091 6.43218 4.09091H4.65945C4.15945 4.09091 4.15945 4.33523 4.15945 4.41477C4.15038 4.54064 4.18666 4.6656 4.26172 4.76704L6.1765 5.48295C6.43905 5.60687 6.65813 5.80709 6.8051 6.05746C6.95208 6.30783 7.02013 6.59671 7.00036 6.88636C7.00198 7.24512 6.86939 7.59152 6.62863 7.8575C6.38788 8.12349 6.05637 8.28983 5.69922 8.32386C5.66561 8.32931 5.63508 8.34664 5.61318 8.37272C5.59127 8.39879 5.57947 8.43186 5.57991 8.46591V8.84659C5.57991 8.99728 5.52004 9.1418 5.41349 9.24835C5.30694 9.35491 5.16242 9.41477 5.01172 9.41477C4.86103 9.41477 4.71651 9.35491 4.60996 9.24835C4.5034 9.1418 4.44354 8.99728 4.44354 8.84659V8.49432C4.44354 8.45664 4.42858 8.42051 4.40194 8.39387C4.3753 8.36724 4.33917 8.35227 4.3015 8.35227H3.59127C3.44058 8.35227 3.29606 8.29241 3.1895 8.18585C3.08295 8.0793 3.02309 7.93478 3.02309 7.78409C3.02309 7.6334 3.08295 7.48888 3.1895 7.38232C3.29606 7.27577 3.44058 7.21591 3.59127 7.21591H5.364C5.864 7.21591 5.864 6.96591 5.864 6.88636C5.87307 6.76049 5.83679 6.63553 5.76172 6.53409ZM10.6935 8.5625C10.8066 8.5625 10.915 8.60739 10.9949 8.68731C11.0748 8.76723 11.1197 8.87562 11.1197 8.98863C11.1197 9.10165 11.0748 9.21004 10.9949 9.28996C10.915 9.36987 10.8066 9.41477 10.6935 9.41477H7.85263C7.73962 9.41477 7.63123 9.36987 7.55131 9.28996C7.47139 9.21004 7.4265 9.10165 7.4265 8.98863C7.4265 8.87562 7.47139 8.76723 7.55131 8.68731C7.63123 8.60739 7.73962 8.5625 7.85263 8.5625H10.6935ZM8.56286 6.43182C8.56433 6.31926 8.6097 6.21172 8.6893 6.13212C8.7689 6.05252 8.87644 6.00715 8.989 6.00568H10.6935C10.8066 6.00568 10.915 6.05058 10.9949 6.13049C11.0748 6.21041 11.1197 6.3188 11.1197 6.43182C11.1197 6.54483 11.0748 6.65322 10.9949 6.73314C10.915 6.81306 10.8066 6.85795 10.6935 6.85795H8.989C8.87644 6.85648 8.7689 6.81111 8.6893 6.73151C8.6097 6.65191 8.56433 6.54438 8.56286 6.43182ZM10.6935 11.1193C10.8066 11.1193 10.915 11.1642 10.9949 11.2441C11.0748 11.324 11.1197 11.4324 11.1197 11.5455C11.1197 11.6585 11.0748 11.7669 10.9949 11.8468C10.915 11.9267 10.8066 11.9716 10.6935 11.9716H5.01172C4.89871 11.9716 4.79032 11.9267 4.7104 11.8468C4.63048 11.7669 4.58559 11.6585 4.58559 11.5455C4.58559 11.4324 4.63048 11.324 4.7104 11.2441C4.79032 11.1642 4.89871 11.1193 5.01172 11.1193H10.6935Z" fill="#A9E2B3"/>
</g>
<defs>
<clipPath id="clip0_5519_14352">
<rect x="0.181824" y="0.181816" width="13.6364" height="13.6364" rx="6.81818" fill="white"/>
</clipPath>
</defs>
</svg>
