<svg width="35" height="35" viewBox="0 0 35 35" fill="none" xmlns="http://www.w3.org/2000/svg">
<path fill-rule="evenodd" clip-rule="evenodd" d="M22.0731 5.87208C22.0731 8.87208 17.2116 11.3021 11.2131 11.3021C5.21763 11.3021 0.356125 8.87208 0.356125 5.87208C0.356125 2.87358 5.21613 0.442078 11.2146 0.442078C17.2116 0.442078 22.0746 2.87358 22.0746 5.87208H22.0731ZM11.2131 13.5491C14.4861 13.5491 17.5596 12.8906 19.8981 11.7221C20.6783 11.3377 21.4087 10.8597 22.0731 10.2986V15.4811C22.0701 15.5145 22.0686 15.548 22.0686 15.5816C22.0686 16.5791 21.2301 17.7866 19.1826 18.8096C17.2011 19.7996 14.3856 20.4446 11.2146 20.4446C8.04363 20.4446 5.22813 19.7996 3.24662 18.8096C1.19913 17.7866 0.359125 16.5791 0.359125 15.5816C0.359609 15.548 0.358608 15.5145 0.356125 15.4811V10.2986C1.0201 10.8603 1.75057 11.3384 2.53113 11.7221C4.86812 12.8921 7.94163 13.5491 11.2146 13.5491H11.2131ZM0.357625 19.6361V24.3236C0.357625 27.3221 5.21762 29.7536 11.2161 29.7536C13.4871 29.7536 15.5961 29.4041 17.3391 28.8086C17.1393 28.2986 17.0536 27.751 17.0881 27.2043C17.1226 26.6577 17.2765 26.1252 17.5388 25.6444C17.8012 25.1635 18.1657 24.746 18.6067 24.4212C19.0478 24.0963 19.5546 23.872 20.0916 23.7641C20.8425 23.6053 21.5313 23.2322 22.0746 22.6901V19.6361C21.4891 20.0961 20.8572 20.4938 20.1891 20.8226C17.8341 22.0001 14.6601 22.6961 11.2161 22.6961C7.77062 22.6961 4.59662 22.0001 2.24162 20.8226C1.57406 20.4937 0.942635 20.096 0.357625 19.6361ZM28.0461 21.0041C27.996 20.7481 27.8584 20.5176 27.657 20.3518C27.4557 20.1861 27.2029 20.0954 26.9421 20.0954C26.6813 20.0954 26.4286 20.1861 26.2272 20.3518C26.0258 20.5176 25.8883 20.7481 25.8381 21.0041C25.3101 23.6921 23.1981 25.8191 20.6091 26.3396C20.3548 26.3912 20.1262 26.5292 19.9619 26.7301C19.7977 26.931 19.708 27.1826 19.708 27.4421C19.708 27.7016 19.7977 27.9531 19.9619 28.154C20.1262 28.355 20.3548 28.4929 20.6091 28.5446C23.1981 29.0651 25.3086 31.1891 25.8366 33.8771C25.8868 34.133 26.0243 34.3636 26.2257 34.5294C26.4271 34.6951 26.6798 34.7857 26.9406 34.7857C27.2014 34.7857 27.4542 34.6951 27.6555 34.5294C27.8569 34.3636 27.9945 34.133 28.0446 33.8771C28.5726 31.1891 30.6846 29.0651 33.2736 28.5446C33.5279 28.4929 33.7566 28.355 33.9208 28.154C34.085 27.9531 34.1748 27.7016 34.1748 27.4421C34.1748 27.1826 34.085 26.931 33.9208 26.7301C33.7566 26.5292 33.5279 26.3912 33.2736 26.3396C30.6846 25.8191 28.5726 23.6921 28.0461 21.0041Z" fill="white"/>
</svg>
