<svg width="20" height="20" viewBox="0 0 20 20" fill="none" xmlns="http://www.w3.org/2000/svg">
<path d="M9.16797 16.0417H10.8346C10.9997 16.0395 11.1574 15.973 11.2742 15.8562C11.3909 15.7395 11.4575 15.5818 11.4596 15.4167V13.75C11.4596 13.7226 11.465 13.6956 11.4755 13.6703C11.486 13.645 11.5013 13.622 11.5207 13.6027C11.54 13.5833 11.563 13.568 11.5882 13.5575C11.6135 13.5471 11.6406 13.5417 11.668 13.5417H13.3346C13.4997 13.5395 13.6574 13.473 13.7742 13.3562C13.8909 13.2395 13.9575 13.0818 13.9596 12.9167V11.25C13.9575 11.0849 13.8909 10.9272 13.7742 10.8104C13.6574 10.6937 13.4997 10.6272 13.3346 10.625H11.668C11.6406 10.625 11.6135 10.6196 11.5882 10.6091C11.563 10.5987 11.54 10.5833 11.5207 10.564C11.5013 10.5446 11.486 10.5217 11.4755 10.4964C11.465 10.4711 11.4596 10.444 11.4596 10.4167V8.75C11.4575 8.58491 11.3909 8.42719 11.2742 8.31044C11.1574 8.1937 10.9997 8.12716 10.8346 8.125H9.16797C9.00288 8.12716 8.84516 8.1937 8.72841 8.31044C8.61167 8.42719 8.54513 8.58491 8.54297 8.75V10.4167C8.54297 10.4719 8.52102 10.5249 8.48195 10.564C8.44288 10.6031 8.38989 10.625 8.33464 10.625H6.66797C6.50288 10.6272 6.34516 10.6937 6.22841 10.8104C6.11167 10.9272 6.04513 11.0849 6.04297 11.25V12.9167C6.04513 13.0818 6.11167 13.2395 6.22841 13.3562C6.34516 13.473 6.50288 13.5395 6.66797 13.5417H8.33464C8.38989 13.5417 8.44288 13.5636 8.48195 13.6027C8.52102 13.6418 8.54297 13.6947 8.54297 13.75V15.4167C8.54513 15.5818 8.61167 15.7395 8.72841 15.8562C8.84516 15.973 9.00288 16.0395 9.16797 16.0417Z" fill="#A9E2B3"/>
<path d="M20 2.91675C20 2.25371 19.7366 1.61782 19.2678 1.14898C18.7989 0.68014 18.163 0.416748 17.5 0.416748H13.75C13.6395 0.416748 13.5335 0.460647 13.4554 0.538787C13.3772 0.616927 13.3333 0.722908 13.3333 0.833415V5.83342C13.3333 5.94392 13.3772 6.0499 13.4554 6.12804C13.5335 6.20618 13.6395 6.25008 13.75 6.25008H17.9167C18.0272 6.25008 18.1332 6.29398 18.2113 6.37212C18.2894 6.45026 18.3333 6.55624 18.3333 6.66675V17.0834C18.3333 17.3044 18.2455 17.5164 18.0893 17.6727C17.933 17.829 17.721 17.9167 17.5 17.9167H2.5C2.27899 17.9167 2.06702 17.829 1.91074 17.6727C1.75446 17.5164 1.66667 17.3044 1.66667 17.0834V6.66675C1.66667 6.55624 1.71057 6.45026 1.78871 6.37212C1.86685 6.29398 1.97283 6.25008 2.08333 6.25008H14.5C14.6105 6.25008 14.7165 6.20618 14.7946 6.12804C14.8728 6.0499 14.9167 5.94392 14.9167 5.83342V0.833415C14.9167 0.722908 14.8728 0.616927 14.7946 0.538787C14.7165 0.460647 14.6105 0.416748 14.5 0.416748H2.5C1.83696 0.416748 1.20107 0.68014 0.732233 1.14898C0.263392 1.61782 0 2.25371 0 2.91675L0 17.0834C0 17.7465 0.263392 18.3823 0.732233 18.8512C1.20107 19.32 1.83696 19.5834 2.5 19.5834H17.5C18.163 19.5834 18.7989 19.32 19.2678 18.8512C19.7366 18.3823 20 17.7465 20 17.0834V2.91675Z" fill="#A9E2B3"/>
</svg>
