<svg width="37" height="37" viewBox="0 0 37 37" fill="none" xmlns="http://www.w3.org/2000/svg">
<path fill-rule="evenodd" clip-rule="evenodd" d="M4.26314 0.758057C2.19014 0.758057 0.429138 2.51606 0.429138 4.59056V32.6331C0.429138 34.7061 2.19014 36.4671 4.26314 36.4671H21.5611C21.959 36.4671 22.3405 36.309 22.6218 36.0277C22.9031 35.7464 23.0611 35.3649 23.0611 34.9671C23.0611 34.5692 22.9031 34.1877 22.6218 33.9064C22.3405 33.6251 21.959 33.4671 21.5611 33.4671H4.26314C3.84764 33.4671 3.42914 33.0486 3.42914 32.6331V8.97356H33.0991V21.1806C33.0991 21.5784 33.2572 21.9599 33.5385 22.2412C33.8198 22.5225 34.2013 22.6806 34.5991 22.6806C34.997 22.6806 35.3785 22.5225 35.6598 22.2412C35.9411 21.9599 36.0991 21.5784 36.0991 21.1806V4.59056C36.0991 2.51756 34.3381 0.758057 32.2651 0.758057H4.26314ZM7.20164 4.59356C7.20164 5.02679 7.02954 5.44228 6.7232 5.74862C6.41686 6.05496 6.00137 6.22706 5.56814 6.22706C5.13491 6.22706 4.71942 6.05496 4.41308 5.74862C4.10674 5.44228 3.93464 5.02679 3.93464 4.59356C3.93464 4.16033 4.10674 3.74484 4.41308 3.4385C4.71942 3.13216 5.13491 2.96006 5.56814 2.96006C6.00137 2.96006 6.41686 3.13216 6.7232 3.4385C7.02954 3.74484 7.20164 4.16033 7.20164 4.59356ZM10.3141 6.22706C10.7474 6.22706 11.1629 6.05496 11.4692 5.74862C11.7755 5.44228 11.9476 5.02679 11.9476 4.59356C11.9476 4.16033 11.7755 3.74484 11.4692 3.4385C11.1629 3.13216 10.7474 2.96006 10.3141 2.96006C9.88091 2.96006 9.46542 3.13216 9.15908 3.4385C8.85274 3.74484 8.68064 4.16033 8.68064 4.59356C8.68064 5.02679 8.85274 5.44228 9.15908 5.74862C9.46542 6.05496 9.88091 6.22706 10.3141 6.22706ZM16.6936 4.59356C16.6936 5.02679 16.5215 5.44228 16.2152 5.74862C15.9089 6.05496 15.4934 6.22706 15.0601 6.22706C14.6269 6.22706 14.2114 6.05496 13.9051 5.74862C13.5987 5.44228 13.4266 5.02679 13.4266 4.59356C13.4266 4.16033 13.5987 3.74484 13.9051 3.4385C14.2114 3.13216 14.6269 2.96006 15.0601 2.96006C15.4934 2.96006 15.9089 3.13216 16.2152 3.4385C16.5215 3.74484 16.6936 4.16033 16.6936 4.59356ZM29.9686 22.4436C29.9177 22.1884 29.78 21.9588 29.5788 21.7938C29.3777 21.6289 29.1255 21.5387 28.8654 21.5387C28.6052 21.5387 28.3531 21.6289 28.152 21.7938C27.9508 21.9588 27.813 22.1884 27.7621 22.4436C27.2341 25.1316 25.1221 27.2586 22.5331 27.7791C22.2788 27.8307 22.0502 27.9687 21.886 28.1696C21.7217 28.3705 21.632 28.6221 21.632 28.8816C21.632 29.1411 21.7217 29.3926 21.886 29.5935C22.0502 29.7944 22.2788 29.9324 22.5331 29.9841C25.1221 30.5046 27.2341 32.6286 27.7606 35.3166C27.8108 35.5725 27.9483 35.8031 28.1497 35.9688C28.3511 36.1346 28.6038 36.2252 28.8646 36.2252C29.1255 36.2252 29.3782 36.1346 29.5796 35.9688C29.7809 35.8031 29.9185 35.5725 29.9686 35.3166C30.4966 32.6286 32.6086 30.5046 35.1976 29.9841C35.452 29.9324 35.6806 29.7944 35.8448 29.5935C36.009 29.3926 36.0988 29.1411 36.0988 28.8816C36.0988 28.6221 36.009 28.3705 35.8448 28.1696C35.6806 27.9687 35.452 27.8307 35.1976 27.7791C32.6086 27.2586 30.4966 25.1316 29.9701 22.4436H29.9686Z" fill="white"/>
</svg>
