<svg width="34" height="37" viewBox="0 0 34 37" fill="none" xmlns="http://www.w3.org/2000/svg">
<path fill-rule="evenodd" clip-rule="evenodd" d="M27.1368 1.26765C27.0859 1.01252 26.9481 0.782921 26.747 0.61794C26.5458 0.452959 26.2937 0.362793 26.0335 0.362793C25.7734 0.362793 25.5212 0.452959 25.3201 0.61794C25.1189 0.782921 24.9812 1.01252 24.9303 1.26765C24.4023 3.95565 22.2903 6.08265 19.7013 6.60315C19.447 6.65479 19.2183 6.79276 19.0541 6.99369C18.8899 7.19462 18.8001 7.44614 18.8001 7.70565C18.8001 7.96515 18.8899 8.21668 19.0541 8.41761C19.2183 8.61853 19.447 8.75651 19.7013 8.80815C22.2903 9.32865 24.4023 11.4526 24.9288 14.1406C24.9789 14.3966 25.1165 14.6272 25.3179 14.7929C25.5192 14.9587 25.772 15.0493 26.0328 15.0493C26.2936 15.0493 26.5463 14.9587 26.7477 14.7929C26.9491 14.6272 27.0866 14.3966 27.1368 14.1406C27.6648 11.4526 29.7768 9.32865 32.3643 8.80815C32.6186 8.75651 32.8472 8.61853 33.0115 8.41761C33.1757 8.21668 33.2654 7.96515 33.2654 7.70565C33.2654 7.44614 33.1757 7.19462 33.0115 6.99369C32.8472 6.79276 32.6186 6.65479 32.3643 6.60315C29.7768 6.08265 27.6648 3.95565 27.1368 1.26765ZM6.07677 5.60265C4.78377 5.60265 3.83427 6.55215 3.83427 7.84365V27.6991H20.1618V17.4481C20.1618 17.0503 20.3198 16.6688 20.6011 16.3875C20.8824 16.1062 21.2639 15.9481 21.6618 15.9481C22.0596 15.9481 22.4411 16.1062 22.7224 16.3875C23.0037 16.6688 23.1618 17.0503 23.1618 17.4481V30.9031C23.1618 33.8506 20.8698 36.1426 17.9208 36.1426H6.07527C3.12777 36.1426 0.834274 33.8506 0.834274 30.9031V7.84365C0.834274 4.89615 3.12777 2.60265 6.07527 2.60265H15.7353C16.1331 2.60265 16.5146 2.76068 16.7959 3.04199C17.0772 3.32329 17.2353 3.70482 17.2353 4.10265C17.2353 4.50047 17.0772 4.882 16.7959 5.16331C16.5146 5.44461 16.1331 5.60265 15.7353 5.60265H6.07527H6.07677Z" fill="white"/>
</svg>
