<svg width="36" height="36" viewBox="0 0 36 36" fill="none" xmlns="http://www.w3.org/2000/svg">
<path fill-rule="evenodd" clip-rule="evenodd" d="M29.1035 1.61146C28.9998 1.08374 28.5372 0.703125 27.9995 0.703125C27.4617 0.703125 26.9991 1.08374 26.8956 1.61146C26.3679 4.29964 24.2557 6.42637 21.6675 6.94669C21.142 7.05231 20.7642 7.51379 20.7642 8.04963C20.7642 8.58547 21.142 9.04696 21.6675 9.15257C24.2563 9.67302 26.3675 11.7967 26.895 14.4842C26.9985 15.012 27.4611 15.3926 27.9988 15.3926C28.5366 15.3926 28.9992 15.012 29.1028 14.4842C29.6302 11.7968 31.742 9.67303 34.331 9.15257C34.8563 9.04696 35.2342 8.58547 35.2342 8.04963C35.2342 7.51379 34.8563 7.05231 34.331 6.94669C31.7427 6.42639 29.631 4.29976 29.1035 1.61146ZM0.764648 11.9941C0.764648 11.1657 1.43622 10.4941 2.26465 10.4941H17.748C18.5764 10.4941 19.248 11.1657 19.248 11.9941C19.248 12.8226 18.5764 13.4941 17.748 13.4941H2.26465C1.43622 13.4941 0.764648 12.8226 0.764648 11.9941ZM2.26465 17.7597C1.43622 17.7597 0.764648 18.4314 0.764648 19.2597C0.764648 20.0882 1.43622 20.7597 2.26465 20.7597H33.4146C34.243 20.7597 34.9146 20.0882 34.9146 19.2597C34.9146 18.4314 34.243 17.7597 33.4146 17.7597H2.26465ZM0.764648 26.5312C0.764648 25.7028 1.43622 25.0312 2.26465 25.0312H33.4146C34.243 25.0312 34.9146 25.7028 34.9146 26.5312C34.9146 27.3597 34.243 28.0312 33.4146 28.0312H2.26465C1.43622 28.0312 0.764648 27.3597 0.764648 26.5312ZM2.26465 32.2968C1.43622 32.2968 0.764648 32.9685 0.764648 33.7968C0.764648 34.6252 1.43622 35.2968 2.26465 35.2968H33.4146C34.243 35.2968 34.9146 34.6252 34.9146 33.7968C34.9146 32.9685 34.243 32.2968 33.4146 32.2968H2.26465Z" fill="white"/>
</svg>
