<svg width="36" height="35" viewBox="0 0 36 35" fill="none" xmlns="http://www.w3.org/2000/svg">
<path fill-rule="evenodd" clip-rule="evenodd" d="M29.1806 1.0116C29.077 0.483889 28.6144 0.103271 28.0766 0.103271C27.5389 0.103271 27.0763 0.483889 26.9726 1.0116C26.4451 3.6998 24.3329 5.82651 21.7445 6.34685C21.2192 6.45245 20.8414 6.91394 20.8414 7.44978C20.8414 7.98563 21.2192 8.4471 21.7445 8.55272C24.3335 9.07316 26.4446 11.1968 26.972 13.8844C27.0757 14.4121 27.5383 14.7928 28.076 14.7928C28.6138 14.7928 29.0764 14.4121 29.18 13.8844C29.7074 11.1969 31.819 9.07319 34.4081 8.55272C34.9334 8.4471 35.3113 7.98563 35.3113 7.44978C35.3113 6.91394 34.9334 6.45245 34.4081 6.34685C31.8199 5.82654 29.7082 3.69992 29.1806 1.0116ZM19.231 4.88453C18.5971 5.56073 18.2164 6.46779 18.2164 7.44978C18.2164 9.23594 19.4761 10.7742 21.2272 11.1262C22.7512 11.4326 24.0686 12.7209 24.3962 14.3899C24.7415 16.1491 26.2834 17.4178 28.076 17.4178C29.1751 17.4178 30.1798 16.9409 30.8723 16.1665V24.1499C30.8723 26.2211 29.1935 27.8999 27.1223 27.8999H16.5929C16.3828 27.8999 16.1822 27.9881 16.0402 28.1429L10.9695 33.6704C9.58256 35.1823 7.06145 34.201 7.06145 32.1494V27.8999H4.54199C2.47093 27.8999 0.791992 26.2211 0.791992 24.1499V8.63453C0.791992 6.56346 2.47093 4.88453 4.54199 4.88453H19.231Z" fill="white"/>
</svg>
