<svg width="20" height="20" viewBox="0 0 20 20" fill="none" xmlns="http://www.w3.org/2000/svg">
<g clip-path="url(#clip0_5519_12238)">
<path fill-rule="evenodd" clip-rule="evenodd" d="M1.45833 0C1.0663 0 0.691045 0.133404 0.412225 0.412225C0.133404 0.691045 0 1.0663 0 1.45833V6.45833C0 6.85037 0.133404 7.22563 0.412225 7.50444C0.691045 7.78326 1.0663 7.91667 1.45833 7.91667H6.45833C6.85037 7.91667 7.22563 7.78326 7.50444 7.50444C7.78326 7.22563 7.91667 6.85037 7.91667 6.45833V1.45833C7.91667 1.0663 7.78326 0.691045 7.50444 0.412225C7.22563 0.133404 6.85037 0 6.45833 0H1.45833ZM2.29161 3.1249C2.75185 3.1249 3.12495 2.7518 3.12495 2.29157C3.12495 1.83132 2.75185 1.45823 2.29161 1.45823C1.83138 1.45823 1.45828 1.83132 1.45828 2.29157C1.45828 2.7518 1.83138 3.1249 2.29161 3.1249ZM5.45828 3.44791L6.62495 5.19791V5.78124C6.62495 6.24148 6.25186 6.61457 5.79162 6.61457H2.29162L4.45829 3.44791C4.5811 3.27766 4.70828 3.1249 4.95828 3.1249C5.12495 3.1249 5.35959 3.29737 5.45828 3.44791ZM14.8298 7.74633L15.6877 3.4566L16.442 6.00962C16.4753 6.12334 16.5376 6.24488 16.6273 6.34904C16.7097 6.44464 16.9043 6.62504 17.2083 6.62504C17.3265 6.62504 17.4654 6.60323 17.6031 6.52972C17.7372 6.45809 17.8251 6.36138 17.8813 6.28318L18.3015 5.71017C18.3407 5.65666 18.4032 5.62504 18.4695 5.62504H19.375C19.7202 5.62504 20 5.34522 20 5.00004C20 4.65486 19.7202 4.37504 19.375 4.37504H18.4695C18.0612 4.37504 17.6745 4.54593 17.4003 4.84158L16.5578 1.98962C16.555 1.98043 16.5521 1.97132 16.5489 1.96228C16.4917 1.79687 16.3897 1.6095 16.2007 1.47082C16.0084 1.32979 15.7981 1.29171 15.625 1.29171C15.1257 1.29171 14.7664 1.6801 14.6785 2.12892L13.8182 6.43043L13.5374 5.43677C13.3599 4.8087 12.7867 4.37504 12.134 4.37504H10.125C9.77983 4.37504 9.5 4.65486 9.5 5.00004C9.5 5.34522 9.77983 5.62504 10.125 5.62504H12.134C12.2273 5.62504 12.3092 5.68699 12.3345 5.77672L12.9403 7.92002C12.9509 7.95778 12.9651 7.99445 12.9827 8.02955C13.037 8.13829 13.1278 8.29847 13.2867 8.42558C13.4678 8.57058 13.6752 8.625 13.875 8.625C14.1616 8.625 14.3959 8.488 14.5461 8.33783C14.6822 8.20176 14.8074 7.99673 14.8298 7.74633ZM10.0416 8.95833C8.70675 8.95833 7.5313 9.64058 6.84487 10.6754C7.94797 11.8344 9.53417 12.5322 11.2684 12.5322C12.2018 12.5322 13.0247 12.346 13.7479 11.9843C13.7605 11.9781 13.7732 11.9723 13.7861 11.9672C13.4089 10.2463 11.8757 8.95833 10.0416 8.95833ZM6.20829 12.7917C6.20829 12.403 6.26613 12.0278 6.37368 11.6743C7.65602 12.8728 9.39558 13.5738 11.2684 13.5738C12.2047 13.5738 13.0724 13.4105 13.8645 13.0767C13.7187 15.0607 12.0628 16.625 10.0416 16.625C7.92452 16.625 6.20829 14.9088 6.20829 12.7917ZM10.0417 17.2083C8.37658 17.2083 6.82782 17.8377 5.63128 18.8518C5.49793 18.9648 5.4493 19.1491 5.50948 19.3132C5.56967 19.4773 5.72588 19.5863 5.90067 19.5863H14.1233C14.2972 19.5863 14.4529 19.4783 14.5138 19.3153C14.5745 19.1523 14.5277 18.9688 14.3962 18.8548C13.2238 17.839 11.7084 17.2083 10.0417 17.2083Z" fill="#A9E2B3"/>
</g>
<defs>
<clipPath id="clip0_5519_12238">
<rect width="20" height="20" fill="white"/>
</clipPath>
</defs>
</svg>
