<svg width="36" height="35" viewBox="0 0 36 35" fill="none" xmlns="http://www.w3.org/2000/svg">
<path fill-rule="evenodd" clip-rule="evenodd" d="M8.9416 0.232056C9.20247 0.232072 9.45522 0.322747 9.65661 0.488566C9.858 0.654385 9.99551 0.885038 10.0456 1.14106C10.6621 4.27906 13.1281 6.76606 16.1551 7.37356C16.4094 7.4252 16.6381 7.56317 16.8023 7.7641C16.9665 7.96503 17.0562 8.21655 17.0562 8.47606C17.0562 8.73556 16.9665 8.98709 16.8023 9.18801C16.6381 9.38894 16.4094 9.52691 16.1551 9.57856C13.1266 10.1876 10.6621 12.6701 10.0456 15.8081C9.99544 16.064 9.8579 16.2946 9.65652 16.4603C9.45513 16.6261 9.20242 16.7167 8.9416 16.7167C8.68077 16.7167 8.42806 16.6261 8.22667 16.4603C8.02529 16.2946 7.88776 16.064 7.8376 15.8081C7.2226 12.6701 4.7566 10.1876 1.7281 9.58006C1.47297 9.52915 1.24337 9.39139 1.07839 9.19023C0.913408 8.98908 0.823242 8.73696 0.823242 8.47681C0.823242 8.21665 0.913408 7.96453 1.07839 7.76338C1.24337 7.56222 1.47297 7.42446 1.7281 7.37356C4.7566 6.76456 7.2226 4.27906 7.8376 1.14106C7.88768 0.885038 8.02519 0.654385 8.22658 0.488566C8.42797 0.322747 8.68072 0.232072 8.9416 0.232056ZM34.0771 8.52855C31.7521 6.19905 28.1821 6.36105 26.0221 8.52855L24.6586 9.89655L32.7106 17.9486L34.0726 16.6061C34.0803 16.5982 34.0878 16.5902 34.0951 16.5821C36.2356 14.2826 36.2611 10.7201 34.0771 8.52855ZM10.2076 24.3956L23.0701 11.4896L31.1101 19.5296L18.1246 32.3381C18.0309 32.4306 17.9145 32.4968 17.7871 32.5301L8.5081 34.9571C8.38153 34.9901 8.24852 34.9894 8.12229 34.9551C7.99606 34.9209 7.88098 34.8542 7.78849 34.7617C7.696 34.6692 7.6293 34.5541 7.59503 34.4279C7.56075 34.3016 7.56008 34.1686 7.5931 34.0421L10.0126 24.7376C10.046 24.6082 10.1133 24.4902 10.2076 24.3956Z" fill="white"/>
</svg>
