<svg width="14" height="20" viewBox="0 0 14 20" fill="none" xmlns="http://www.w3.org/2000/svg">
<path d="M11.1654 0H2.83203C2.16899 0 1.53311 0.263392 1.06426 0.732233C0.595424 1.20107 0.332031 1.83696 0.332031 2.5V17.5C0.332031 18.163 0.595424 18.7989 1.06426 19.2678C1.53311 19.7366 2.16899 20 2.83203 20H11.1654C11.8284 20 12.4643 19.7366 12.9331 19.2678C13.402 18.7989 13.6654 18.163 13.6654 17.5V2.5C13.6654 1.83696 13.402 1.20107 12.9331 0.732233C12.4643 0.263392 11.8284 0 11.1654 0ZM6.9987 18.725C6.83388 18.725 6.67276 18.6761 6.53572 18.5846C6.39868 18.493 6.29187 18.3628 6.2288 18.2106C6.16573 18.0583 6.14922 17.8907 6.18138 17.7291C6.21353 17.5674 6.2929 17.419 6.40944 17.3024C6.52599 17.1859 6.67447 17.1065 6.83612 17.0743C6.99777 17.0422 7.16533 17.0587 7.3176 17.1218C7.46987 17.1848 7.60002 17.2917 7.69159 17.4287C7.78316 17.5657 7.83203 17.7268 7.83203 17.8917C7.83203 18.1127 7.74423 18.3246 7.58795 18.4809C7.43167 18.6372 7.21971 18.725 6.9987 18.725ZM11.9987 15C11.9987 15.221 11.9109 15.433 11.7546 15.5893C11.5983 15.7455 11.3864 15.8333 11.1654 15.8333H2.83203C2.61102 15.8333 2.39906 15.7455 2.24278 15.5893C2.0865 15.433 1.9987 15.221 1.9987 15V2.94167C1.9987 2.83223 2.02025 2.72387 2.06213 2.62276C2.10401 2.52166 2.16539 2.42979 2.24278 2.35241C2.39906 2.19613 2.61102 2.10833 2.83203 2.10833H11.1654C11.2748 2.10833 11.3832 2.12989 11.4843 2.17177C11.5854 2.21365 11.6772 2.27503 11.7546 2.35241C11.832 2.42979 11.8934 2.52166 11.9353 2.62276C11.9771 2.72387 11.9987 2.83223 11.9987 2.94167V15Z" fill="#A9E2B3"/>
</svg>
