<svg width="36" height="36" viewBox="0 0 36 36" fill="none" xmlns="http://www.w3.org/2000/svg">
<path fill-rule="evenodd" clip-rule="evenodd" d="M28.7656 15.5006C28.7656 12.2066 27.4571 9.0475 25.1279 6.7183C22.7987 4.3891 19.6396 3.08057 16.3456 3.08057C13.0516 3.08057 9.89256 4.3891 7.56336 6.7183C5.23416 9.0475 3.92563 12.2066 3.92563 15.5006C3.92563 18.7946 5.23416 21.9536 7.56336 24.2828C9.89256 26.612 13.0516 27.9206 16.3456 27.9206C19.6396 27.9206 22.7987 26.612 25.1279 24.2828C27.4571 21.9536 28.7656 18.7946 28.7656 15.5006ZM16.3456 0.0805664C24.8611 0.0805664 31.7656 6.98357 31.7656 15.4991C31.7709 19.1659 30.4641 22.7137 28.0816 25.5011L35.1661 32.5826C35.4476 32.8638 35.6058 33.2454 35.6059 33.6433C35.6061 34.0412 35.4481 34.4229 35.1669 34.7043C34.8856 34.9858 34.5041 35.144 34.1062 35.1441C33.7083 35.1443 33.3266 34.9863 33.0451 34.7051L25.9231 27.5846C23.2004 29.7486 19.8236 30.9243 16.3456 30.9191C7.82863 30.9206 0.925629 24.0161 0.925629 15.5006C0.925629 6.98357 7.82713 0.0805664 16.3456 0.0805664ZM17.4496 6.77057C17.3995 6.51461 17.2619 6.28404 17.0606 6.11829C16.8592 5.95255 16.6065 5.86192 16.3456 5.86192C16.0848 5.86192 15.8321 5.95255 15.6307 6.11829C15.4293 6.28404 15.2918 6.51461 15.2416 6.77057C14.4886 10.6106 11.4721 13.6526 7.76263 14.3981C7.50831 14.4497 7.27967 14.5877 7.11544 14.7886C6.95122 14.9895 6.8615 15.2411 6.8615 15.5006C6.8615 15.7601 6.95122 16.0116 7.11544 16.2125C7.27967 16.4135 7.50831 16.5514 7.76263 16.6031C11.4736 17.3501 14.4871 20.3876 15.2401 24.2261C15.2903 24.482 15.4278 24.7126 15.6292 24.8783C15.8306 25.0441 16.0833 25.1347 16.3441 25.1347C16.605 25.1347 16.8577 25.0441 17.0591 24.8783C17.2604 24.7126 17.398 24.482 17.4481 24.2261C18.2026 20.3876 21.2161 17.3501 24.9271 16.6046C25.1814 16.5529 25.4101 16.415 25.5743 16.214C25.7385 16.0131 25.8283 15.7616 25.8283 15.5021C25.8283 15.2426 25.7385 14.991 25.5743 14.7901C25.4101 14.5892 25.1814 14.4512 24.9271 14.3996C21.2176 13.6526 18.2026 10.6106 17.4496 6.77207V6.77057Z" fill="white"/>
</svg>
