<svg width="36" height="36" viewBox="0 0 36 36" fill="none" xmlns="http://www.w3.org/2000/svg">
<path fill-rule="evenodd" clip-rule="evenodd" d="M28.1796 0.357422C28.7175 0.357422 29.1801 0.738039 29.2836 1.26576C29.8111 3.95406 31.9229 6.08069 34.5111 6.60099C35.0364 6.70661 35.4144 7.16808 35.4144 7.70393C35.4144 8.23977 35.0364 8.70126 34.5111 8.80686C31.9221 9.32733 29.8104 11.4511 29.283 14.1385C29.1794 14.6662 28.7169 15.0468 28.179 15.0468C27.6413 15.0468 27.1786 14.6662 27.0751 14.1385C26.5476 11.451 24.4365 9.32732 21.8477 8.80686C21.3223 8.70126 20.9443 8.23977 20.9443 7.70393C20.9443 7.16808 21.3223 6.70661 21.8477 6.60099C24.4359 6.08067 26.5482 3.95394 27.0758 1.26576C27.1793 0.738039 27.6418 0.357422 28.1796 0.357422ZM15.7411 12.3164C15.7411 11.488 15.0696 10.8164 14.2412 10.8164C13.4128 10.8164 12.7412 11.488 12.7412 12.3164V34.1443C12.7412 34.9726 13.4128 35.6443 14.2412 35.6443C15.0696 35.6443 15.7411 34.9726 15.7411 34.1443V12.3164ZM20.3204 14.0156C21.1488 14.0156 21.8204 14.6872 21.8204 15.5157V30.9431C21.8204 31.7715 21.1488 32.4431 20.3204 32.4431C19.4919 32.4431 18.8204 31.7715 18.8204 30.9431V15.5157C18.8204 14.6872 19.4919 14.0156 20.3204 14.0156ZM27.8965 19.2012C27.8965 18.3728 27.2248 17.7012 26.3965 17.7012C25.5681 17.7012 24.8965 18.3728 24.8965 19.2012V27.2563C24.8965 28.0848 25.5681 28.7563 26.3965 28.7563C27.2248 28.7563 27.8965 28.0848 27.8965 27.2563V19.2012ZM8.16504 16.33C8.99346 16.33 9.66504 17.0016 9.66504 17.83V28.6327C9.66504 29.4612 8.99346 30.1327 8.16504 30.1327C7.33662 30.1327 6.66504 29.4612 6.66504 28.6327V17.83C6.66504 17.0016 7.33661 16.33 8.16504 16.33ZM3.58593 14.2266C3.58593 13.3981 2.91437 12.7266 2.08593 12.7266C1.25751 12.7266 0.585938 13.3981 0.585938 14.2266V32.2324C0.585938 33.0609 1.25751 33.7324 2.08594 33.7324C2.91436 33.7324 3.58594 33.0609 3.58594 32.2324L3.58593 14.2266Z" fill="white"/>
</svg>
