<svg width="18" height="20" viewBox="0 0 18 20" fill="none" xmlns="http://www.w3.org/2000/svg">
<path d="M16.968 4.875L12.4596 0.366667C12.2244 0.133708 11.9073 0.00209305 11.5763 0L1.91797 0C1.58645 0 1.26851 0.131696 1.03409 0.366117C0.799665 0.600537 0.667969 0.918479 0.667969 1.25V18.75C0.667969 19.0815 0.799665 19.3995 1.03409 19.6339C1.26851 19.8683 1.58645 20 1.91797 20H16.918C16.9727 20 17.0269 19.9892 17.0774 19.9683C17.128 19.9473 17.1739 19.9167 17.2126 19.878C17.2513 19.8393 17.282 19.7933 17.3029 19.7428C17.3239 19.6922 17.3346 19.6381 17.3346 19.5833V5.75833C17.3325 5.42729 17.2009 5.11022 16.968 4.875ZM7.18464 9.31667L4.3763 8.26667C3.99123 8.08493 3.66991 7.79127 3.45435 7.42406C3.23878 7.05685 3.13897 6.63315 3.16797 6.20833C3.1656 5.68216 3.36006 5.17411 3.71317 4.784C4.06627 4.39388 4.55249 4.14991 5.0763 4.1C5.1256 4.09201 5.17039 4.06659 5.20251 4.02835C5.23463 3.99011 5.25195 3.9416 5.2513 3.89167V3.33333C5.2513 3.11232 5.3391 2.90036 5.49538 2.74408C5.65166 2.5878 5.86362 2.5 6.08464 2.5C6.30565 2.5 6.51761 2.5878 6.67389 2.74408C6.83017 2.90036 6.91797 3.11232 6.91797 3.33333V3.85833C6.91797 3.91359 6.93992 3.96658 6.97899 4.00565C7.01806 4.04472 7.07105 4.06667 7.1263 4.06667H8.16797C8.38898 4.06667 8.60094 4.15446 8.75722 4.31074C8.9135 4.46702 9.0013 4.67899 9.0013 4.9C9.0013 5.12101 8.9135 5.33297 8.75722 5.48926C8.60094 5.64554 8.38898 5.73333 8.16797 5.73333H5.56797C4.83464 5.73333 4.83464 6.09167 4.83464 6.20833C4.82134 6.39294 4.87454 6.57621 4.98464 6.725L7.79297 7.775C8.17805 7.95674 8.49936 8.2504 8.71493 8.61761C8.9305 8.98482 9.0303 9.40851 9.0013 9.83333C9.00367 10.3595 8.80921 10.8676 8.4561 11.2577C8.103 11.6478 7.61678 11.8918 7.09297 11.9417C7.04367 11.9497 6.99888 11.9751 6.96676 12.0133C6.93464 12.0516 6.91733 12.1001 6.91797 12.15V12.7083C6.91797 12.9293 6.83017 13.1413 6.67389 13.2976C6.51761 13.4539 6.30565 13.5417 6.08464 13.5417C5.86362 13.5417 5.65166 13.4539 5.49538 13.2976C5.3391 13.1413 5.2513 12.9293 5.2513 12.7083V12.1917C5.2513 12.1364 5.22935 12.0834 5.19028 12.0444C5.15121 12.0053 5.09822 11.9833 5.04297 11.9833H4.0013C3.78029 11.9833 3.56833 11.8955 3.41205 11.7393C3.25577 11.583 3.16797 11.371 3.16797 11.15C3.16797 10.929 3.25577 10.717 3.41205 10.5607C3.56833 10.4045 3.78029 10.3167 4.0013 10.3167H6.6013C7.33464 10.3167 7.33464 9.95 7.33464 9.83333C7.34794 9.64872 7.29473 9.46545 7.18464 9.31667ZM14.418 12.2917C14.5837 12.2917 14.7427 12.3575 14.8599 12.4747C14.9771 12.5919 15.043 12.7509 15.043 12.9167C15.043 13.0824 14.9771 13.2414 14.8599 13.3586C14.7427 13.4758 14.5837 13.5417 14.418 13.5417H10.2513C10.0855 13.5417 9.92657 13.4758 9.80936 13.3586C9.69215 13.2414 9.6263 13.0824 9.6263 12.9167C9.6263 12.7509 9.69215 12.5919 9.80936 12.4747C9.92657 12.3575 10.0855 12.2917 10.2513 12.2917H14.418ZM11.293 9.16667C11.2951 9.00158 11.3617 8.84386 11.4784 8.72711C11.5952 8.61037 11.7529 8.54383 11.918 8.54167H14.418C14.5837 8.54167 14.7427 8.60751 14.8599 8.72472C14.9771 8.84194 15.043 9.00091 15.043 9.16667C15.043 9.33243 14.9771 9.4914 14.8599 9.60861C14.7427 9.72582 14.5837 9.79167 14.418 9.79167H11.918C11.7529 9.78951 11.5952 9.72297 11.4784 9.60622C11.3617 9.48948 11.2951 9.33176 11.293 9.16667ZM14.418 16.0417C14.5837 16.0417 14.7427 16.1075 14.8599 16.2247C14.9771 16.3419 15.043 16.5009 15.043 16.6667C15.043 16.8324 14.9771 16.9914 14.8599 17.1086C14.7427 17.2258 14.5837 17.2917 14.418 17.2917H6.08464C5.91888 17.2917 5.7599 17.2258 5.64269 17.1086C5.52548 16.9914 5.45964 16.8324 5.45964 16.6667C5.45964 16.5009 5.52548 16.3419 5.64269 16.2247C5.7599 16.1075 5.91888 16.0417 6.08464 16.0417H14.418Z" fill="#A9E2B3"/>
</svg>
