<svg width="20" height="20" viewBox="0 0 20 20" fill="none" xmlns="http://www.w3.org/2000/svg">
<path d="M20 2.5C20 1.83696 19.7366 1.20107 19.2678 0.732233C18.7989 0.263392 18.163 0 17.5 0L2.5 0C1.83696 0 1.20107 0.263392 0.732233 0.732233C0.263392 1.20107 0 1.83696 0 2.5L0 17.5C0 18.163 0.263392 18.7989 0.732233 19.2678C1.20107 19.7366 1.83696 20 2.5 20H17.5C18.163 20 18.7989 19.7366 19.2678 19.2678C19.7366 18.7989 20 18.163 20 17.5V2.5ZM8.04167 1.66667C8.1164 1.54607 8.22069 1.44656 8.34465 1.37755C8.4686 1.30854 8.60813 1.27232 8.75 1.27232C8.89187 1.27232 9.0314 1.30854 9.15535 1.37755C9.27931 1.44656 9.3836 1.54607 9.45833 1.66667C9.5397 1.7904 9.58306 1.93525 9.58306 2.08333C9.58306 2.23142 9.5397 2.37627 9.45833 2.5C9.3836 2.62059 9.27931 2.72011 9.15535 2.78912C9.0314 2.85813 8.89187 2.89435 8.75 2.89435C8.60813 2.89435 8.4686 2.85813 8.34465 2.78912C8.22069 2.72011 8.1164 2.62059 8.04167 2.5C7.9603 2.37627 7.91694 2.23142 7.91694 2.08333C7.91694 1.93525 7.9603 1.7904 8.04167 1.66667ZM5.125 1.66667C5.19974 1.54607 5.30402 1.44656 5.42798 1.37755C5.55194 1.30854 5.69146 1.27232 5.83333 1.27232C5.97521 1.27232 6.11473 1.30854 6.23869 1.37755C6.36264 1.44656 6.46693 1.54607 6.54167 1.66667C6.62303 1.7904 6.66639 1.93525 6.66639 2.08333C6.66639 2.23142 6.62303 2.37627 6.54167 2.5C6.46693 2.62059 6.36264 2.72011 6.23869 2.78912C6.11473 2.85813 5.97521 2.89435 5.83333 2.89435C5.69146 2.89435 5.55194 2.85813 5.42798 2.78912C5.30402 2.72011 5.19974 2.62059 5.125 2.5C5.04363 2.37627 5.00027 2.23142 5.00027 2.08333C5.00027 1.93525 5.04363 1.7904 5.125 1.66667ZM2.15833 1.74167C2.22271 1.60543 2.32281 1.4892 2.44799 1.40534C2.57317 1.32148 2.71875 1.27313 2.86923 1.26544C3.01971 1.25774 3.16946 1.29099 3.30255 1.36164C3.43563 1.4323 3.54707 1.53771 3.625 1.66667C3.70637 1.7904 3.74973 1.93525 3.74973 2.08333C3.74973 2.23142 3.70637 2.37627 3.625 2.5C3.55026 2.62059 3.44598 2.72011 3.32202 2.78912C3.19806 2.85813 3.05854 2.89435 2.91667 2.89435C2.77479 2.89435 2.63527 2.85813 2.51131 2.78912C2.38736 2.72011 2.28307 2.62059 2.20833 2.5C2.13051 2.37463 2.08737 2.23084 2.08333 2.08333C2.08658 1.96574 2.11202 1.84981 2.15833 1.74167ZM2.5 18.3333C2.27899 18.3333 2.06702 18.2455 1.91074 18.0893C1.75446 17.933 1.66667 17.721 1.66667 17.5V4.375C1.66667 4.31975 1.68862 4.26676 1.72769 4.22769C1.76676 4.18862 1.81975 4.16667 1.875 4.16667H6.875C6.93025 4.16667 6.98324 4.18862 7.02231 4.22769C7.06138 4.26676 7.08333 4.31975 7.08333 4.375V18.125C7.08333 18.1803 7.06138 18.2332 7.02231 18.2723C6.98324 18.3114 6.93025 18.3333 6.875 18.3333H2.5ZM18.3333 17.5C18.3333 17.721 18.2455 17.933 18.0893 18.0893C17.933 18.2455 17.721 18.3333 17.5 18.3333H8.54167C8.51431 18.3333 8.48722 18.3279 8.46194 18.3175C8.43666 18.307 8.4137 18.2917 8.39435 18.2723C8.37501 18.253 8.35966 18.23 8.34919 18.2047C8.33872 18.1794 8.33333 18.1524 8.33333 18.125V4.375C8.33333 4.34764 8.33872 4.32055 8.34919 4.29527C8.35966 4.27 8.37501 4.24703 8.39435 4.22769C8.4137 4.20834 8.43666 4.193 8.46194 4.18253C8.48722 4.17206 8.51431 4.16667 8.54167 4.16667H18.125C18.1803 4.16667 18.2332 4.18862 18.2723 4.22769C18.3114 4.26676 18.3333 4.31975 18.3333 4.375V17.5Z" fill="#A9E2B3"/>
<path d="M11.2513 6.04175H15.418C15.418 6.04175 16.2513 6.04175 16.2513 6.87508V9.79175C16.2513 9.79175 16.2513 10.6251 15.418 10.6251H11.2513C11.2513 10.6251 10.418 10.6251 10.418 9.79175V6.87508C10.418 6.87508 10.418 6.04175 11.2513 6.04175Z" fill="#A9E2B3"/>
<path d="M15.6263 12.9167H11.043C10.8772 12.9167 10.7182 12.9826 10.601 13.0998C10.4838 13.217 10.418 13.376 10.418 13.5417C10.418 13.7075 10.4838 13.8665 10.601 13.9837C10.7182 14.1009 10.8772 14.1667 11.043 14.1667H15.6263C15.7921 14.1667 15.951 14.1009 16.0682 13.9837C16.1855 13.8665 16.2513 13.7075 16.2513 13.5417C16.2513 13.376 16.1855 13.217 16.0682 13.0998C15.951 12.9826 15.7921 12.9167 15.6263 12.9167Z" fill="#A9E2B3"/>
<path d="M2.91797 6.04175C2.92013 6.20684 2.98667 6.36456 3.10341 6.4813C3.22016 6.59805 3.37788 6.66459 3.54297 6.66675H5.20964C5.3754 6.66675 5.53437 6.6009 5.65158 6.48369C5.76879 6.36648 5.83464 6.20751 5.83464 6.04175C5.83464 5.87599 5.76879 5.71702 5.65158 5.59981C5.53437 5.4826 5.3754 5.41675 5.20964 5.41675H3.54297C3.37788 5.41891 3.22016 5.48545 3.10341 5.60219C2.98667 5.71894 2.92013 5.87666 2.91797 6.04175Z" fill="#A9E2B3"/>
<path d="M3.54297 10H5.20964C5.3754 10 5.53437 9.93415 5.65158 9.81694C5.76879 9.69973 5.83464 9.54076 5.83464 9.375C5.83464 9.20924 5.76879 9.05027 5.65158 8.93306C5.53437 8.81585 5.3754 8.75 5.20964 8.75H3.54297C3.37721 8.75 3.21824 8.81585 3.10103 8.93306C2.98382 9.05027 2.91797 9.20924 2.91797 9.375C2.91797 9.54076 2.98382 9.69973 3.10103 9.81694C3.21824 9.93415 3.37721 10 3.54297 10Z" fill="#A9E2B3"/>
<path d="M3.54297 13.3333H5.20964C5.3754 13.3333 5.53437 13.2674 5.65158 13.1502C5.76879 13.033 5.83464 12.874 5.83464 12.7083C5.83464 12.5425 5.76879 12.3835 5.65158 12.2663C5.53437 12.1491 5.3754 12.0833 5.20964 12.0833H3.54297C3.37721 12.0833 3.21824 12.1491 3.10103 12.2663C2.98382 12.3835 2.91797 12.5425 2.91797 12.7083C2.91797 12.874 2.98382 13.033 3.10103 13.1502C3.21824 13.2674 3.37721 13.3333 3.54297 13.3333Z" fill="#A9E2B3"/>
<path d="M3.54297 16.6667H5.20964C5.3754 16.6667 5.53437 16.6009 5.65158 16.4837C5.76879 16.3665 5.83464 16.2075 5.83464 16.0417C5.83464 15.876 5.76879 15.717 5.65158 15.5998C5.53437 15.4826 5.3754 15.4167 5.20964 15.4167H3.54297C3.37721 15.4167 3.21824 15.4826 3.10103 15.5998C2.98382 15.717 2.91797 15.876 2.91797 16.0417C2.91797 16.2075 2.98382 16.3665 3.10103 16.4837C3.21824 16.6009 3.37721 16.6667 3.54297 16.6667Z" fill="#A9E2B3"/>
</svg>
