<svg width="20" height="18" viewBox="0 0 20 18" fill="none" xmlns="http://www.w3.org/2000/svg">
<path fill-rule="evenodd" clip-rule="evenodd" d="M19.2807 3.18911C17.6824 -0.173389 13.4166 -0.870889 10.7749 1.77078L9.96657 2.57911L9.15823 1.77078C6.6674 -0.720889 2.25157 -0.00838876 0.655734 3.18328C0.649453 3.19613 0.643617 3.20919 0.638234 3.22244C-0.226766 5.29744 0.101568 7.76161 1.70657 9.37078L9.67323 17.6491C9.73221 17.7104 9.80307 17.7589 9.88147 17.7919C9.95987 17.8248 10.0442 17.8414 10.1292 17.8406C10.2142 17.8398 10.2982 17.8217 10.376 17.7873C10.4538 17.753 10.5237 17.7031 10.5816 17.6408L12.2266 15.8616C12.1541 15.8383 12.0804 15.8191 12.0057 15.8041C11.5339 15.7093 11.1094 15.454 10.8045 15.0817C10.4995 14.7093 10.3329 14.2429 10.3329 13.7616C10.3329 13.2803 10.4995 12.8139 10.8045 12.4415C11.1094 12.0692 11.5339 11.8139 12.0057 11.7191C12.8507 11.5491 13.5841 10.8324 13.7666 9.90411C13.8578 9.43939 14.1046 9.01961 14.4664 8.71397C14.8281 8.40834 15.2832 8.23508 15.7567 8.22275C16.2301 8.21042 16.6936 8.35977 17.0708 8.64617C17.448 8.93257 17.7163 9.33893 17.8316 9.79828L18.2366 9.36078C19.7924 7.72911 20.3466 5.32744 19.2807 3.18911ZM16.4241 10.1849C16.3962 10.0427 16.3198 9.91465 16.2079 9.82257C16.096 9.73049 15.9556 9.68014 15.8107 9.68014C15.6658 9.68014 15.5254 9.73049 15.4136 9.82257C15.3017 9.91465 15.2253 10.0427 15.1974 10.1849C14.9041 11.6783 13.7307 12.8599 12.2932 13.1491C12.1519 13.1778 12.0249 13.2545 11.9337 13.3661C11.8424 13.4777 11.7926 13.6174 11.7926 13.7616C11.7926 13.9058 11.8424 14.0455 11.9337 14.1571C12.0249 14.2688 12.1519 14.3454 12.2932 14.3741C13.7316 14.6633 14.9041 15.8433 15.1974 17.3366C15.2257 17.4783 15.3022 17.6059 15.414 17.6976C15.5257 17.7892 15.6658 17.8393 15.8103 17.8393C15.9549 17.8393 16.0949 17.7892 16.2067 17.6976C16.3184 17.6059 16.395 17.4783 16.4232 17.3366C16.7166 15.8433 17.8899 14.6633 19.3282 14.3741C19.4695 14.3454 19.5965 14.2688 19.6878 14.1571C19.779 14.0455 19.8289 13.9058 19.8289 13.7616C19.8289 13.6174 19.779 13.4777 19.6878 13.3661C19.5965 13.2545 19.4695 13.1778 19.3282 13.1491C17.8899 12.8599 16.7174 11.6783 16.4241 10.1849Z" fill="#A9E2B3"/>
</svg>
