<svg width="36" height="36" viewBox="0 0 36 36" fill="none" xmlns="http://www.w3.org/2000/svg">
<path fill-rule="evenodd" clip-rule="evenodd" d="M7.93979 7.28085C2.23687 12.9838 2.23687 22.23 7.93979 27.9329C13.6427 33.6359 22.8889 33.6359 28.5919 27.9329C32.1039 24.4209 33.4545 19.5657 32.6388 15.0158C32.4927 14.2004 33.0351 13.4208 33.8506 13.2746C34.666 13.1284 35.4456 13.671 35.5917 14.4864C36.5733 19.9613 34.9488 25.8188 30.7132 30.0543C23.8387 36.9287 12.693 36.9287 5.81846 30.0543C-1.05602 23.1798 -1.05602 12.034 5.81846 5.15952C11.9335 -0.955513 21.4282 -1.63106 28.29 3.13289L30.2556 1.16732C30.5773 0.845573 31.0612 0.749324 31.4815 0.923451C31.902 1.09758 32.176 1.5078 32.176 1.96281V7.72214C32.176 8.34345 31.6723 8.84714 31.051 8.84714H25.2918C24.8367 8.84714 24.4264 8.57303 24.2524 8.15265C24.0783 7.73226 24.1744 7.24838 24.4962 6.92664L26.1267 5.29623C20.4756 1.68024 12.8789 2.34179 7.93979 7.28085ZM19.3716 8.61288C19.2679 8.08517 18.8053 7.70456 18.2676 7.70456C17.7298 7.70456 17.2672 8.08517 17.1637 8.61288C16.3839 12.5859 13.2633 15.7347 9.42256 16.5069C8.89721 16.6125 8.51927 17.0739 8.51927 17.6097C8.51927 18.1457 8.89721 18.6071 9.42256 18.7127C13.2639 19.485 16.3831 22.6292 17.1628 26.6016C17.2663 27.1293 17.7289 27.51 18.2668 27.51C18.8046 27.51 19.2672 27.1293 19.3707 26.6016C20.1504 22.6293 23.2704 19.485 27.1119 18.7127C27.6372 18.6071 28.015 18.1457 28.015 17.6097C28.015 17.0739 27.6372 16.6125 27.1119 16.5069C23.2711 15.7347 20.1513 12.5861 19.3716 8.61288Z" fill="white"/>
</svg>
