<svg width="87" height="85" viewBox="0 0 87 85" fill="none" xmlns="http://www.w3.org/2000/svg">
<path d="M2.4544 66.9787C2.59323 66.9961 2.7147 67.0135 2.85353 67.0135C3.94684 67.0135 4.69308 66.2467 4.90133 64.9221C4.93604 64.7129 4.97074 64.5038 5.0228 64.2947C5.07487 64.0507 5.12694 63.8066 5.16164 63.5626C5.30048 62.6041 5.45667 61.6455 5.5955 60.7043C6.06406 57.7066 6.56733 54.5868 6.6541 51.4671C6.67145 51.014 6.67145 50.5608 6.6888 50.1076C6.75822 47.7722 6.81028 45.3496 7.01853 42.9793C7.64328 35.6244 8.71924 28.3043 10.2464 21.2456L10.3679 20.6705C10.8885 18.2479 11.4265 15.7556 12.2074 13.3679C12.6066 12.1653 12.9884 11.015 13.8734 10.161C14.3767 9.67296 14.8106 9.44639 15.2271 9.44639C15.6609 9.44639 16.1121 9.72524 16.5981 10.3004C17.3443 11.1893 17.6046 12.3221 17.7608 13.3156C18.4897 17.8993 18.5244 22.6225 17.8996 27.764C17.7261 29.2454 17.5178 30.9186 17.1881 32.5395C16.9798 33.5678 17.2922 34.4044 18.0732 34.8924C18.455 35.1364 18.8715 35.2584 19.288 35.2584C19.6524 35.2584 20.0342 35.1538 20.3986 34.9795C21.2143 34.5612 21.4399 33.7769 21.5787 32.9926C22.5332 27.2411 22.8629 22.4831 22.6199 18.0388C22.6026 17.5856 22.5158 17.1325 22.4464 16.6967C22.3076 15.8602 22.1687 15.0759 22.3943 14.3787C22.6026 13.7339 22.7414 13.0541 22.8803 12.4267C23.0191 11.7644 23.1406 11.1544 23.3488 10.5444C23.6612 9.6381 24.0256 8.95838 24.5463 8.41809C24.876 8.06951 25.0148 8.03466 25.0669 8.03466C25.1016 8.03466 25.2578 8.06951 25.5181 8.60981C26.4552 10.4573 26.6635 12.4616 26.7329 14.187L26.7503 14.7273C26.9759 19.8513 27.2015 25.1497 27.0973 30.3609C27.0973 30.6397 27.0973 30.9186 27.0973 31.18C27.0973 31.3717 27.0973 31.5635 27.0973 31.7552C27.0973 32.5046 27.4618 33.0623 28.1906 33.4283C28.5377 33.6026 28.9022 33.7072 29.2666 33.7072C30.3079 33.7072 31.1409 32.9752 31.3144 31.8946C31.3838 31.4937 31.3665 31.1103 31.3665 30.7269C31.3665 30.6397 31.3665 30.5352 31.3665 30.448C31.3318 24.6791 31.297 18.7185 31.245 12.6881C31.2276 11.3113 31.2276 9.89953 31.9218 8.62723C32.4077 7.7558 33.0845 7.32008 33.9869 7.30265H34.0043C34.7679 7.30265 35.167 7.82551 35.5662 8.64466C35.8438 9.23724 36.0347 9.72524 36.1389 10.1958C36.5554 12.0781 36.781 14.0824 36.781 16.1565C36.781 19.3982 36.4339 22.6748 36.0868 25.8468L36.0174 26.5091C35.9827 26.7706 35.9653 27.0146 35.9306 27.276C35.7571 28.8446 35.5835 30.4655 35.4794 32.0515C35.41 33.2192 36.2256 34.1778 37.4231 34.3172C37.5098 34.3346 37.5792 34.3346 37.666 34.3346C38.6031 34.3346 39.4015 33.6898 39.6791 32.6789C39.7832 32.2955 39.87 31.9295 39.8874 31.5983C39.9221 31.1452 39.9741 30.692 40.0262 30.2389C40.165 28.9317 40.2865 27.5548 40.3559 26.2128C40.4774 23.4765 41.2931 21.3502 42.907 19.5028C45.3019 16.7839 47.7835 15.5116 50.7164 15.5116C51.0982 15.5116 51.4973 15.529 51.8791 15.5813C55.0723 15.9299 56.6689 17.115 57.4151 19.6596L57.4324 19.7293C57.6407 20.4439 57.7448 20.8622 57.3283 21.2631C57.1548 21.4374 56.9812 21.5071 56.7556 21.5071C56.4953 21.5071 56.1829 21.4025 55.9053 21.3154L55.6797 21.2456C54.7252 20.9319 53.736 20.6008 52.7468 20.3219C51.9832 20.1128 51.237 20.0082 50.4908 20.0082C48.7901 20.0082 47.1935 20.5659 45.8746 21.6291C44.6945 22.5877 43.8094 23.8948 43.3755 25.324C42.1781 29.2454 41.9699 33.2889 42.7508 37.3324C42.8896 38.0121 43.1152 38.6744 43.4103 39.2321C44.2086 40.6961 45.2151 42.317 47.0026 43.2059C43.9309 44.2864 41.0501 45.8376 38.2561 47.3539C37.8396 47.5805 37.4404 47.8071 37.0239 48.0162C36.6074 48.2428 36.1215 48.5042 35.6529 48.8005C34.9067 49.2711 34.5943 50.0031 34.8026 50.8222C35.0108 51.6762 35.6529 52.2165 36.5901 52.3385C36.6942 52.356 36.8157 52.356 36.9198 52.356C37.4231 52.356 37.9263 52.2165 38.4643 51.9202C39.1585 51.5368 39.9568 51.1011 40.7551 50.6828L41.1022 50.4911C44.6598 48.5914 48.3562 46.6219 52.4691 45.9247C53.441 45.7679 54.3781 45.4367 55.2979 45.1405C55.5408 45.0533 55.7664 44.9836 56.0094 44.8965C59.5497 43.7462 62.066 39.877 61.6148 36.2867C61.4933 35.3106 61.2677 34.3869 61.0421 33.5329C61.0074 33.4283 60.9901 33.3238 60.9553 33.2192C60.643 32.034 60.3306 30.9186 60.4694 29.7334C60.6082 28.496 61.2156 27.7989 62.1875 27.7989C62.5172 27.7989 62.899 27.886 63.2982 28.0429C64.7212 28.6006 65.5889 29.6812 66.0228 31.424C66.6822 34.0558 67.3937 37.1929 67.6888 40.4173C67.897 42.683 68.0706 45.3496 67.8102 47.9988C67.5152 50.9617 66.4566 53.942 64.565 57.0966C63.0205 59.676 61.2157 62.1335 59.4629 64.5038C58.7861 65.4275 58.0919 66.3861 57.4151 67.3273C54.9681 70.7433 52.4865 74.473 51.3238 78.8999C51.0114 80.1199 50.647 81.4968 50.7164 82.9434C50.7684 84.1286 51.4626 84.8606 52.6253 84.9826C52.6947 84.9826 52.7642 85 52.8336 85C53.7707 85 54.5343 84.4249 54.8467 83.5186C54.9161 83.3094 54.9334 83.1003 54.9508 82.8911C54.9682 82.7866 54.9681 82.6994 54.9855 82.6123C55.5235 79.2137 56.773 76.0242 58.6993 73.1136C59.9314 71.2487 61.2677 69.349 62.7775 67.275L63.1246 66.787C65.0856 64.0855 67.1334 61.2969 68.8341 58.334C70.9514 54.674 72.062 51.0139 72.2356 47.1622C72.4612 42.1601 71.8538 37.0012 70.2919 30.9012C69.7018 28.5832 68.6259 26.8054 67.0987 25.6028C65.5889 24.4177 63.6105 23.7728 61.233 23.7205H61.1115L61.0248 23.7902C61.0074 23.8077 60.99 23.8077 60.9727 23.8251C61.8751 22.6051 62.1701 21.1759 61.8577 19.5899C61.2677 16.7142 59.862 14.6053 57.6407 13.3504C55.5756 12.1827 53.146 11.5553 50.647 11.5553C47.4364 11.5553 44.3995 12.601 42.1087 14.5007C41.9699 14.6053 41.8484 14.7273 41.7269 14.8493C41.536 15.041 41.3451 15.2153 41.1369 15.3547C41.1021 15.0062 41.0674 14.6576 41.0327 14.3264C40.9286 13.211 40.8245 12.1653 40.6856 11.1021C40.3039 7.91266 39.2453 6.37892 38.4817 5.50749C37.2322 4.07833 35.7397 3.38118 33.9175 3.38118C33.8828 3.38118 33.8481 3.38118 33.8134 3.38118C31.9218 3.41604 30.2384 4.1829 28.7113 5.73406C27.4271 4.51405 26.299 3.9389 25.1537 3.9389C23.5397 3.9389 21.9084 5.05434 19.7392 7.66865C19.7045 7.63379 19.6524 7.58151 19.583 7.51179C19.5309 7.44208 19.4615 7.38979 19.3921 7.32008C18.0732 6.15235 16.546 5.52492 14.9841 5.52492C12.8843 5.52492 10.9232 6.67521 9.63901 8.66209C8.99691 9.65553 8.49364 10.7535 8.07713 12.0607C6.74086 16.3656 5.87315 20.8622 5.04015 25.202C4.95338 25.69 4.84926 26.1605 4.76249 26.6486C3.66918 32.2432 2.9403 38.169 2.59322 44.2516C2.5238 45.4019 2.47174 46.5696 2.41968 47.7025C2.21143 52.0771 2.00319 56.5911 1.15283 60.9832C1.10077 61.2621 1.0487 61.5409 0.996641 61.8198C0.823099 62.6738 0.649545 63.5452 0.528065 64.4167C0.337169 65.6889 1.13548 66.787 2.4544 66.9787ZM55.6102 31.0232C55.7144 32.1038 55.9921 33.1669 56.2524 34.1778C56.4259 34.8226 56.5994 35.4849 56.7209 36.1472C57.0159 37.6635 56.4953 38.9881 55.2458 39.9641C54.4649 40.5741 53.5972 41.1493 52.6774 41.1493C52.3303 41.1493 51.9832 41.0621 51.6361 40.9053C49.3801 39.8596 47.9918 38.2212 47.367 35.9032C46.829 33.8815 47.1067 31.8423 47.367 29.8729C47.4017 29.6289 47.4364 29.3849 47.4711 29.1409C48.0091 25.0451 49.4495 24.4874 50.7858 24.4874C51.5147 24.4874 52.4171 24.6791 53.5104 25.08C54.4649 25.4285 55.5755 25.7945 56.7556 25.7945C56.8424 25.7945 56.9292 25.7945 57.0159 25.7945C55.8532 27.0668 55.402 28.7574 55.6102 31.0232Z" fill="#FAFAFA"/>
<path d="M68.0879 18.0736C67.7755 18.213 67.4632 18.335 67.1855 18.5442C66.5955 18.9625 66.2657 19.5551 66.3004 20.1999C66.3178 20.8622 66.6996 21.4548 67.3417 21.8208C67.6887 22.0299 68.0532 22.1171 68.435 22.1171C68.973 22.1171 69.4936 21.9254 69.9622 21.7162C74.5784 19.7293 79.3508 18.0213 83.8455 16.4702C84.4008 16.2785 84.8868 16.0693 85.3206 15.8427C86.2404 15.3722 86.6222 14.6924 86.466 13.8036C86.2924 12.845 85.3727 12.1653 84.2099 12.113H84.1579L84.1058 12.1304C84.0538 12.1478 84.0017 12.1478 83.9323 12.1653C83.7414 12.2001 83.4811 12.2524 83.2207 12.357C82.6307 12.5661 82.0407 12.7753 81.4506 12.9844C77.06 14.5356 72.5132 16.1564 68.1573 18.0388L68.0879 18.0736Z" fill="#FAFAFA"/>
<path d="M62.4131 13.9081C62.4478 13.9081 62.4825 13.9081 62.5172 13.9081C63.3155 13.9081 63.9403 13.4724 64.4609 12.5661C65.4501 10.8581 66.5955 9.21981 67.7061 7.63379C68.0532 7.12836 68.4176 6.62292 68.7647 6.10006C68.9556 5.8212 69.1639 5.52491 69.3548 5.24605C69.8407 4.5489 70.344 3.8169 70.8299 3.08489C71.3852 2.24831 71.3332 1.3943 70.6563 0.749437C70.1357 0.244003 69.6151 0 69.0424 0C68.7821 0 68.5044 0.0522862 68.2268 0.174287C67.6541 0.400861 67.2029 0.801723 66.7864 1.41173C64.9815 4.0609 62.9164 7.07607 60.9206 10.0041C60.8165 10.1784 60.7297 10.3352 60.643 10.5095C60.5736 10.649 60.5041 10.7884 60.4174 10.9104C60.0529 11.4681 60.0182 12.1478 60.3306 12.7404C60.7645 13.4724 61.5454 13.9081 62.4131 13.9081Z" fill="#FAFAFA"/>
</svg>
