<svg width="678" height="147" viewBox="0 0 678 147" fill="none" xmlns="http://www.w3.org/2000/svg">
<path fill-rule="evenodd" clip-rule="evenodd" d="M139.427 0H136.746V147H139.427V0ZM-329.742 2.72223H-327.061V144.278H-329.742V2.72223ZM-332.425 13.6111H-335.105V133.389H-332.425V13.6111ZM-340.465 32.6667H-337.784V114.333H-340.465V32.6667ZM-343.147 43.5555H-345.828V103.444H-343.147V43.5555ZM-353.87 54.4444H-356.551V92.5555H-353.87V54.4444ZM-364.596 62.6111H-367.277V84.3889H-364.596V62.6111ZM-372.637 68.0555H-369.956V78.9444H-372.637V68.0555ZM-378 70.7778H-375.319V76.2222H-378V70.7778ZM-361.914 68.0555H-359.233V78.9444H-361.914V68.0555ZM-351.188 62.6111H-348.507V84.3889H-351.188V62.6111ZM-321.702 13.6111H-324.383V133.389H-321.702V13.6111ZM-319.02 16.3333H-316.339V130.667H-319.02V16.3333ZM-310.975 21.7778H-313.656V125.222H-310.975V21.7778ZM-308.293 32.6667H-305.612V114.333H-308.293V32.6667ZM-300.257 40.8333H-302.938V106.167H-300.257V40.8333ZM-297.57 43.5555H-294.889V103.444H-297.57V43.5555ZM-289.526 59.8889H-292.207V87.1111H-289.526V59.8889ZM-286.848 62.6111H-284.167V84.3889H-286.848V62.6111ZM-278.803 65.3333H-281.484V81.6667H-278.803V65.3333ZM-276.125 68.0555H-273.444V78.9444H-276.125V68.0555ZM-268.081 70.7778H-270.762V76.2222H-268.081V70.7778ZM-265.398 70.7778H-262.717V76.2222H-265.398V70.7778ZM-257.354 68.0555H-260.035V78.9444H-257.354V68.0555ZM-254.676 65.3333H-251.995V81.6667H-254.676V65.3333ZM-246.632 62.6111H-249.312V84.3889H-246.632V62.6111ZM-243.953 59.8889H-241.272V87.1111H-243.953V59.8889ZM-235.909 62.6111H-238.59V84.3889H-235.909V62.6111ZM-233.23 65.3333H-230.549V81.6667H-233.23V65.3333ZM-225.186 70.7778H-227.867V76.2222H-225.186V70.7778ZM-222.504 68.0555H-219.823V78.9444H-222.504V68.0555ZM-214.46 62.6111H-217.141V84.3889H-214.46V62.6111ZM-211.781 59.8889H-209.1V87.1111H-211.781V59.8889ZM-203.737 57.1667H-206.418V89.8333H-203.737V57.1667ZM-201.055 54.4444H-198.374V92.5555H-201.055V54.4444ZM-193.014 49H-195.695V98H-193.014V49ZM-190.332 46.2778H-187.651V100.722H-190.332V46.2778ZM-182.288 43.5555H-184.969V103.444H-182.288V43.5555ZM-179.605 40.8333H-176.924V106.167H-179.605V40.8333ZM-171.565 38.1111H-174.246V108.889H-171.565V38.1111ZM-168.883 40.8333H-166.202V106.167H-168.883V40.8333ZM-160.842 43.5555H-163.523V103.444H-160.842V43.5555ZM-158.16 46.2778H-155.479V100.722H-158.16V46.2778ZM-150.12 49H-152.801V98H-150.12V49ZM-147.438 51.7222H-144.757V95.2778H-147.438V51.7222ZM-139.397 49H-142.078V98H-139.397V49ZM-136.715 46.2778H-134.034V100.722H-136.715V46.2778ZM-128.671 43.5555H-131.352V103.444H-128.671V43.5555ZM-125.988 40.8333H-123.307V106.167H-125.988V40.8333ZM-117.948 38.1111H-120.629V108.889H-117.948V38.1111ZM-115.266 32.6667H-112.585V114.333H-115.266V32.6667ZM-107.221 29.9445H-109.902V117.056H-107.221V29.9445ZM-104.543 27.2222H-101.862V119.778H-104.543V27.2222ZM-96.4987 24.5H-99.1797V122.5H-96.4987V24.5ZM-93.8164 21.7778H-91.1354V125.222H-93.8164V21.7778ZM-85.7722 19.0556H-88.4531V127.944H-85.7722V19.0556ZM-83.0938 16.3333H-80.4128V130.667H-83.0938V16.3333ZM-75.0495 13.6111H-77.7305V133.389H-75.0495V13.6111ZM-72.3711 10.8889H-69.6901V136.111H-72.3711V10.8889ZM-64.3268 19.0556H-67.0078V127.944H-64.3268V19.0556ZM-61.6484 5.44446H-58.9675V141.556H-61.6484V5.44446ZM-53.6042 19.0556H-56.2852V127.944H-53.6042V19.0556ZM-50.9219 32.6667H-48.2409V114.333H-50.9219V32.6667ZM-42.8775 40.8333H-45.5584V106.167H-42.8775V40.8333ZM-40.1992 46.2778H-37.5182V100.722H-40.1992V46.2778ZM-32.1548 54.4444H-34.8358V92.5555H-32.1548V54.4444ZM-29.4766 54.4444H-26.7956V92.5555H-29.4766V54.4444ZM-21.4284 54.4444H-24.1094V92.5555H-21.4284V54.4444ZM-18.7461 43.5555H-16.0651V103.444H-18.7461V43.5555ZM-10.7095 59.8889H-13.3905V87.1111H-10.7095V59.8889ZM-8.02734 57.1667H-5.34637V89.8333H-8.02734V57.1667ZM0.0169067 59.8889H-2.66406V87.1111H0.0169067V59.8889ZM2.69922 62.6111H5.38019V84.3889H2.69922V62.6111ZM10.7396 65.3333H8.05859V81.6667H10.7396V65.3333ZM13.4219 68.0555H16.1028V78.9444H13.4219V68.0555ZM21.4622 70.7778H18.7812V76.2222H21.4622V70.7778ZM24.1445 70.7778H26.8255V76.2222H24.1445V70.7778ZM32.1849 70.7778H29.5039V76.2222H32.1849V70.7778ZM34.8672 62.6111H37.5482V84.3889H34.8672V62.6111ZM42.9114 46.2778H40.2305V100.722H42.9114V46.2778ZM45.5939 46.2778H48.2749V100.722H45.5939V46.2778ZM53.6341 19.0556H50.9531V127.944H53.6341V19.0556ZM56.3166 29.9445H58.9976V117.056H56.3166V29.9445ZM64.3607 2.72223H61.6797V144.278H64.3607V2.72223ZM67.0392 10.8889H69.7202V136.111H67.0392V10.8889ZM75.0833 19.0556H72.4023V127.944H75.0833V19.0556ZM77.7656 27.2222H80.4466V119.778H77.7656V27.2222ZM85.8099 43.5555H83.1289V103.444H85.8099V43.5555ZM88.4883 62.6111H91.1693V84.3889H88.4883V62.6111ZM96.5325 70.7778H93.8516V76.2222H96.5325V70.7778ZM99.2109 68.0555H101.892V78.9444H99.2109V68.0555ZM107.255 62.6111H104.574V84.3889H107.255V62.6111ZM109.934 57.1667H112.615V89.8333H109.934V57.1667ZM117.978 51.7222H115.297V95.2778H117.978V51.7222ZM120.66 38.1111H123.341V108.889H120.66V38.1111ZM128.701 10.8889H126.02V136.111H128.701V10.8889ZM131.379 5.44446H134.06V141.556H131.379V5.44446ZM142.105 8.16666H144.786V138.833H142.105V8.16666ZM150.15 49H147.469V98H150.15V49ZM152.832 54.4444H155.513V92.5555H152.832V54.4444ZM160.872 65.3333H158.191V81.6667H160.872V65.3333ZM163.555 70.7778H166.236V76.2222H163.555V70.7778ZM171.599 70.7778H168.918V76.2222H171.599V70.7778ZM174.281 70.7778H176.962V76.2222H174.281V70.7778ZM182.322 70.7778H179.641V76.2222H182.322V70.7778ZM185.004 65.3333H187.685V81.6667H185.004V65.3333ZM193.044 59.8889H190.363V87.1111H193.044V59.8889ZM195.727 24.5H198.408V122.5H195.727V24.5ZM203.767 57.1667H201.086V89.8333H203.767V57.1667ZM206.449 68.0555H209.13V78.9444H206.449V68.0555ZM214.493 70.7778H211.812V76.2222H214.493V70.7778ZM217.176 70.7778H219.857V76.2222H217.176V70.7778ZM225.216 68.0555H222.535V78.9444H225.216V68.0555ZM227.898 62.6111H230.579V84.3889H227.898V62.6111ZM235.943 68.0555H233.262V78.9444H235.943V68.0555ZM238.621 54.4444H241.302V92.5555H238.621V54.4444ZM246.665 62.6111H243.984V84.3889H246.665V62.6111ZM249.348 43.5555H252.029V103.444H249.348V43.5555ZM257.392 32.6667H254.711V114.333H257.392V32.6667ZM260.07 13.6111H262.751V133.389H260.07V13.6111ZM268.115 2.72223H265.434V144.278H268.115V2.72223ZM270.797 13.6111H273.478V133.389H270.797V13.6111ZM278.837 16.3333H276.156V130.667H278.837V16.3333ZM281.516 21.7778H284.197V125.222H281.516V21.7778ZM289.56 32.6667H286.879V114.333H289.56V32.6667ZM292.242 40.8333H294.923V106.167H292.242V40.8333ZM300.283 43.5555H297.602V103.444H300.283V43.5555ZM302.965 59.8889H305.646V87.1111H302.965V59.8889ZM311.009 62.6111H308.328V84.3889H311.009V62.6111ZM313.688 65.3333H316.368V81.6667H313.688V65.3333ZM321.732 68.0555H319.051V78.9444H321.732V68.0555ZM324.414 70.7778H327.095V76.2222H324.414V70.7778ZM332.454 70.7778H329.773V76.2222H332.454V70.7778ZM335.137 68.0555H337.818V78.9444H335.137V68.0555ZM343.181 65.3333H340.5V81.6667H343.181V65.3333ZM345.863 62.6111H348.544V84.3889H345.863V62.6111ZM353.908 59.8889H351.227V87.1111H353.908V59.8889ZM356.586 62.6111H359.267V84.3889H356.586V62.6111ZM364.63 65.3333H361.949V81.6667H364.63V65.3333ZM367.309 70.7778H369.99V76.2222H367.309V70.7778ZM375.353 68.0555H372.672V78.9444H375.353V68.0555ZM378.031 62.6111H380.712V84.3889H378.031V62.6111ZM386.076 59.8889H383.395V87.1111H386.076V59.8889ZM388.758 57.1667H391.439V89.8333H388.758V57.1667ZM396.798 54.4444H394.117V92.5555H396.798V54.4444ZM399.48 49H402.161V98H399.48V49ZM407.521 46.2778H404.84V100.722H407.521V46.2778ZM410.203 43.5555H412.884V103.444H410.203V43.5555ZM418.247 40.8333H415.566V106.167H418.247V40.8333ZM420.926 38.1111H423.607V108.889H420.926V38.1111ZM428.97 40.8333H426.289V106.167H428.97V40.8333ZM431.652 43.5555H434.333V103.444H431.652V43.5555ZM439.697 46.2778H437.016V100.722H439.697V46.2778ZM442.379 49H445.06V98H442.379V49ZM450.419 51.7222H447.738V95.2778H450.419V51.7222ZM453.102 49H455.783V98H453.102V49ZM461.142 46.2778H458.461V100.722H461.142V46.2778ZM463.824 43.5555H466.505V103.444H463.824V43.5555ZM471.865 40.8333H469.184V106.167H471.865V40.8333ZM474.547 38.1111H477.228V108.889H474.547V38.1111ZM482.591 32.6667H479.91V114.333H482.591V32.6667ZM485.27 29.9445H487.951V117.056H485.27V29.9445ZM493.314 27.2222H490.633V119.778H493.314V27.2222ZM495.996 24.5H498.677V122.5H495.996V24.5ZM504.036 21.7778H501.355V125.222H504.036V21.7778ZM506.719 19.0556H509.4V127.944H506.719V19.0556ZM514.763 16.3333H512.082V130.667H514.763V16.3333ZM517.445 13.6111H520.126V133.389H517.445V13.6111ZM525.49 10.8889H522.809V136.111H525.49V10.8889ZM528.168 19.0556H530.849V127.944H528.168V19.0556ZM536.212 5.44446H533.531V141.556H536.212V5.44446ZM538.891 19.0556H541.572V127.944H538.891V19.0556ZM546.935 32.6667H544.254V114.333H546.935V32.6667ZM549.613 40.8333H552.294V106.167H549.613V40.8333ZM557.658 46.2778H554.977V100.722H557.658V46.2778ZM560.34 54.4444H563.021V92.5555H560.34V54.4444ZM568.38 54.4444H565.699V92.5555H568.38V54.4444ZM571.062 54.4444H573.743V92.5555H571.062V54.4444ZM579.103 43.5555H576.422V103.444H579.103V43.5555ZM581.785 59.8889H584.466V87.1111H581.785V59.8889ZM589.829 57.1667H587.148V89.8333H589.829V57.1667ZM592.508 59.8889H595.189V87.1111H592.508V59.8889ZM600.552 62.6111H597.871V84.3889H600.552V62.6111ZM603.234 65.3333H605.915V81.6667H603.234V65.3333ZM611.279 68.0555H608.598V78.9444H611.279V68.0555ZM613.961 70.7778H616.642V76.2222H613.961V70.7778ZM638.681 72H636V74H638.681V72ZM658 72H660.681V74H658V72ZM627.642 70.7778H624.961V76.2222H627.642V70.7778ZM647 72H649.681V74H647V72ZM671.681 72H669V74H671.681V72ZM619.32 70.7778H622.001V76.2222H619.32V70.7778ZM644.04 72H641.359V74H644.04V72ZM663.359 72H666.04V74H663.359V72ZM633.001 71H630.32V76.4444H633.001V71ZM652.359 72H655.04V74H652.359V72ZM677.04 72H674.359V74H677.04V72Z" fill="#6BD9A1"/>
</svg>
